<?xml version="1.0" standalone="no"?>
<!DOCTYPE svg PUBLIC "-//W3C//DTD SVG 20010904//EN"
 "http://www.w3.org/TR/2001/REC-SVG-20010904/DTD/svg10.dtd">
<svg version="1.0" xmlns="http://www.w3.org/2000/svg"
 width="968.000000pt" height="1280.000000pt" viewBox="0 0 968.000000 1280.000000"
 preserveAspectRatio="xMidYMid meet">

<g transform="translate(0.000000,1280.000000) scale(0.100000,-0.100000)"
fill="#000000" stroke="none">
<path d="M4985 12190 c-33 -5 -105 -20 -160 -35 -112 -30 -182 -46 -303 -71
-72 -15 -93 -16 -163 -5 -76 12 -85 11 -134 -9 -52 -21 -55 -21 -92 -4 -21 9
-46 24 -56 33 -17 14 -20 14 -30 1 -7 -9 -24 -14 -39 -12 -15 2 -38 -4 -50
-12 -27 -19 -117 -21 -164 -4 -29 10 -36 9 -68 -16 -20 -15 -36 -33 -36 -41 0
-8 -18 -19 -41 -25 -49 -14 -94 -57 -79 -76 14 -15 3 -58 -18 -77 -10 -7 -36
-19 -59 -25 -41 -12 -96 -5 -161 19 -34 13 -52 11 -52 -6 0 -9 9 -15 24 -15
32 0 44 -20 17 -27 -22 -6 -29 -23 -9 -23 6 0 9 -2 7 -5 -8 -7 -110 23 -128
38 -9 8 -31 17 -49 19 l-34 5 8 -36 c4 -20 6 -48 5 -63 0 -14 3 -38 9 -53 8
-20 6 -32 -7 -51 -15 -23 -21 -25 -59 -19 -41 6 -129 -13 -164 -35 -12 -7 -12
-12 -2 -22 9 -9 15 -9 24 0 7 7 19 12 27 12 20 -1 -25 -40 -45 -40 -8 0 -14
-4 -14 -10 0 -5 7 -10 16 -10 8 0 13 -4 9 -10 -3 -5 -13 -6 -22 -3 -13 5 -15
2 -10 -15 6 -25 -15 -52 -41 -52 -19 0 -72 -45 -72 -60 0 -6 5 -10 12 -10 6 0
1 -11 -12 -25 -13 -14 -29 -25 -35 -25 -15 0 -47 -36 -71 -80 -10 -19 -31 -52
-46 -73 -15 -21 -30 -60 -33 -85 -8 -55 -26 -102 -40 -103 -5 -1 -22 0 -37 1
-31 2 -36 -11 -13 -30 18 -15 20 -63 3 -93 -6 -12 -28 -44 -48 -72 -21 -27
-50 -72 -65 -100 -15 -27 -33 -54 -41 -58 -8 -4 -14 -14 -14 -21 0 -7 -11 -40
-25 -74 -14 -34 -25 -82 -25 -107 0 -42 -2 -46 -39 -65 -44 -22 -140 -112
-160 -147 -10 -20 -9 -23 9 -23 41 0 35 -42 -13 -93 -12 -13 -47 -51 -78 -83
-67 -71 -81 -110 -48 -135 19 -14 21 -20 11 -31 -14 -18 -6 -28 21 -28 16 0
17 -3 7 -15 -7 -8 -18 -15 -24 -15 -7 0 -17 -5 -24 -12 -9 -9 -8 -16 4 -29 10
-11 12 -19 5 -24 -6 -3 -11 -15 -11 -25 0 -11 -11 -44 -25 -74 -30 -67 -30
-69 -3 -81 12 -6 26 -17 31 -25 12 -20 -7 -90 -32 -117 -19 -20 -19 -21 -2
-26 24 -6 34 -77 19 -135 -8 -31 -7 -46 1 -56 9 -10 9 -25 2 -53 -17 -67 -21
-354 -7 -488 9 -83 42 -222 61 -251 7 -11 16 -42 20 -67 4 -26 9 -47 10 -47 2
0 15 4 29 10 21 7 41 3 101 -21 86 -34 145 -67 145 -80 0 -5 6 -9 13 -9 8 0
19 -11 25 -25 6 -14 18 -25 27 -25 8 0 15 -4 15 -10 0 -5 7 -10 15 -10 8 0 15
-7 15 -15 0 -8 6 -15 13 -15 8 0 26 -14 41 -30 31 -35 28 -60 -9 -98 -19 -19
-24 -20 -29 -7 -3 8 -12 15 -20 15 -15 0 -16 -57 -1 -117 6 -29 5 -33 -12 -33
-12 0 -30 19 -53 58 -165 277 -297 402 -331 315 -16 -42 -25 -233 -10 -233 6
0 12 10 12 23 1 19 2 19 6 3 7 -26 26 -44 55 -51 19 -5 28 -1 42 19 17 27 51
35 59 14 3 -10 7 -10 20 0 14 12 21 9 51 -22 19 -20 41 -51 50 -69 9 -18 32
-53 51 -79 40 -55 38 -70 -19 -132 -20 -21 -36 -47 -36 -58 0 -11 -5 -28 -10
-39 -7 -12 -7 -19 -1 -19 6 0 22 -11 36 -25 14 -14 25 -22 25 -18 0 4 9 19 20
33 l20 25 -7 -110 c-4 -76 -11 -122 -24 -149 -19 -40 -25 -65 -12 -53 11 12
33 -14 33 -39 0 -12 5 -26 10 -29 12 -7 10 -95 -2 -95 -4 0 -8 -7 -8 -15 0 -8
4 -15 9 -15 5 0 12 -26 15 -57 3 -32 8 -79 11 -104 6 -42 4 -48 -24 -77 -41
-41 -89 -64 -110 -53 -9 5 -25 5 -36 1 -18 -7 -15 -10 20 -25 36 -16 94 -16
156 -2 6 1 16 -7 22 -17 7 -11 22 -31 33 -44 13 -14 25 -45 28 -75 4 -28 10
-55 13 -61 4 -5 8 -61 9 -124 1 -107 3 -115 28 -141 31 -32 32 -41 9 -41 -15
0 -15 -3 4 -18 15 -11 23 -29 24 -52 2 -51 31 -130 47 -130 9 0 12 -6 8 -15
-16 -42 40 -182 147 -368 24 -42 47 -95 51 -117 3 -23 13 -43 21 -46 8 -4 15
-15 15 -25 0 -11 7 -22 15 -25 11 -5 13 -21 10 -76 -4 -68 -3 -71 28 -99 17
-16 37 -29 44 -29 8 0 13 -12 13 -29 0 -16 7 -34 15 -41 17 -14 20 -40 6 -40
-5 0 -19 16 -31 35 -37 61 -50 37 -38 -72 2 -14 10 -23 20 -23 22 0 35 -45 19
-64 -8 -9 -8 -17 -2 -20 5 -3 11 -2 13 3 1 4 13 12 26 15 19 6 22 4 22 -18 0
-16 -6 -26 -15 -26 -8 0 -15 -4 -15 -10 0 -5 5 -10 10 -10 12 0 18 -4 80 -58
25 -21 53 -42 63 -45 9 -4 17 -13 17 -21 0 -15 120 -116 139 -116 6 0 11 -4
11 -10 0 -5 10 -10 23 -10 12 0 28 -9 35 -20 7 -11 20 -20 30 -20 9 0 29 -10
44 -23 15 -12 43 -33 61 -47 19 -13 41 -37 50 -52 20 -35 58 -50 116 -46 35 2
47 7 49 21 6 29 33 55 52 50 24 -6 33 12 20 37 -9 16 -8 20 5 20 8 0 15 5 15
10 0 6 7 10 16 10 9 0 14 -6 11 -13 -4 -10 3 -12 24 -9 16 2 32 8 35 13 9 16
50 10 72 -11 12 -11 31 -20 43 -20 12 0 23 -8 26 -19 5 -21 29 -35 44 -26 5 4
6 -1 3 -9 -5 -13 2 -16 35 -16 24 0 41 5 41 11 0 7 11 9 28 6 15 -3 60 -2 101
2 41 4 103 3 138 -2 57 -8 63 -12 63 -32 0 -29 15 -34 110 -35 79 -1 170 -18
170 -32 0 -4 5 -8 11 -8 19 0 70 -58 56 -63 -6 -3 -2 -6 10 -6 12 -1 25 -5 28
-11 3 -5 20 -10 37 -10 l31 0 -23 -25 c-13 -14 -25 -33 -26 -42 -2 -9 -7 -19
-12 -22 -4 -3 -11 -14 -15 -23 -3 -10 -13 -18 -20 -18 -8 0 -20 -7 -27 -15 -7
-8 -16 -13 -20 -10 -10 6 -43 -44 -45 -67 -3 -33 -88 -80 -115 -63 -5 3 -20 1
-35 -5 -15 -6 -31 -7 -37 -4 -6 4 -28 7 -49 8 -31 2 -39 -1 -39 -15 0 -12 13
-22 40 -30 22 -7 40 -17 40 -23 0 -6 17 -12 37 -14 20 -1 40 -7 44 -13 6 -10
129 -9 129 2 0 11 106 38 128 32 18 -4 24 -1 29 16 7 26 20 27 27 4 3 -10 4
-2 2 17 -4 40 1 60 15 60 6 0 9 -13 7 -30 -3 -31 15 -43 21 -13 3 18 19 33 35
33 4 0 6 -10 3 -22 -4 -15 7 -7 38 27 43 47 45 47 45 22 0 -19 5 -27 18 -27 9
0 30 -12 46 -27 19 -17 31 -23 34 -15 2 7 17 12 34 12 23 0 29 -4 24 -16 -14
-37 -18 -64 -8 -64 6 0 13 10 15 23 l4 22 8 -23 c4 -12 16 -22 26 -22 12 0 16
-5 13 -15 -12 -30 32 -15 61 21 16 20 39 40 52 45 16 6 23 17 23 34 0 14 4 25
10 25 5 0 16 15 24 34 14 33 47 61 59 50 3 -3 21 6 40 20 19 14 37 26 41 26 4
0 19 9 32 19 14 11 42 22 64 26 25 4 40 12 40 21 0 8 5 14 10 14 6 0 10 -7 10
-16 0 -14 2 -15 17 -3 9 8 25 13 36 11 12 -2 17 1 13 7 -4 6 5 16 21 23 15 7
36 21 46 31 10 10 23 15 28 11 6 -4 14 -2 18 3 8 14 81 59 108 67 16 5 22 2
26 -11 3 -14 6 -12 11 10 7 24 13 27 55 29 72 2 74 2 109 -13 25 -11 32 -19
32 -42 0 -16 4 -37 10 -47 7 -13 6 -19 -6 -24 -12 -4 -14 -13 -10 -32 5 -19 2
-30 -11 -40 -17 -13 -17 -15 0 -25 14 -8 17 -25 17 -94 0 -86 15 -117 23 -47
3 25 3 23 2 -8 -2 -25 -7 -63 -13 -84 -9 -33 -8 -42 5 -51 12 -9 15 -28 14
-73 -1 -56 1 -61 21 -65 22 -3 22 -4 4 -12 -13 -6 -21 -5 -24 3 -2 7 -10 12
-18 12 -12 0 -12 -4 -2 -20 10 -16 10 -24 0 -40 -10 -17 -10 -20 3 -20 8 0 15
5 15 10 0 17 28 11 43 -10 8 -11 16 -17 19 -14 4 3 9 -5 13 -18 5 -12 21 -35
36 -49 23 -21 31 -24 39 -14 8 10 7 15 -7 19 -10 3 3 4 30 3 41 -2 47 0 47 18
1 19 22 55 33 55 3 0 -4 -22 -15 -49 -19 -43 -23 -48 -39 -38 -24 15 -39 -1
-16 -18 16 -12 17 -16 2 -61 -37 -114 -72 -181 -109 -207 -17 -12 -75 -50
-130 -85 -54 -34 -146 -102 -205 -150 -137 -112 -382 -352 -374 -365 3 -5 1
-7 -4 -4 -6 4 -62 -48 -124 -116 -62 -67 -172 -183 -245 -257 -174 -179 -241
-258 -356 -420 -25 -36 -72 -94 -105 -129 l-59 -64 -99 84 c-55 46 -124 107
-155 135 -45 42 -182 160 -320 277 -100 85 -295 212 -555 362 -106 61 -211
132 -279 187 -60 49 -140 107 -178 130 -81 48 -149 113 -168 160 -12 28 -82
133 -99 148 -3 3 -30 37 -59 75 -28 39 -61 81 -72 95 -11 14 -20 30 -20 35 1
6 6 3 13 -6 56 -72 56 -72 73 -59 13 12 14 10 9 -12 -5 -21 -3 -25 16 -24 12
1 23 -5 25 -12 1 -7 0 -8 -3 -2 -5 11 -23 4 -23 -10 0 -4 8 -7 18 -5 9 2 23 4
30 4 6 1 12 7 12 15 0 8 5 18 11 21 7 5 8 -4 4 -27 -5 -25 -2 -38 10 -48 22
-18 61 -21 75 -6 11 14 4 46 -11 46 -5 0 -9 17 -9 38 0 21 -5 43 -11 49 -14
14 -3 47 12 38 6 -4 9 -16 6 -26 -3 -12 0 -19 9 -19 10 0 14 -12 14 -40 0 -22
5 -40 10 -40 6 0 10 11 10 24 0 16 7 27 20 31 23 7 27 25 7 25 -28 0 -48 36
-46 82 3 51 -7 74 -25 59 -7 -6 -17 -6 -26 0 -13 8 -13 10 0 19 10 6 11 10 3
10 -7 0 -13 6 -13 14 0 8 6 17 13 19 10 4 10 6 0 6 -7 1 -13 8 -13 16 0 8 -6
15 -14 15 -8 0 -17 7 -20 16 -4 10 -14 14 -26 11 -14 -4 -20 0 -20 12 0 12 7
17 21 17 12 -1 24 5 26 12 3 7 -4 12 -16 12 -17 0 -21 6 -22 38 -1 31 -2 33
-8 12 -6 -21 -12 -11 -39 66 -19 50 -30 97 -26 107 3 10 1 17 -5 17 -6 0 -11
8 -11 19 0 10 -7 24 -15 31 -9 7 -13 21 -10 30 3 10 1 29 -4 43 -5 13 -11 53
-13 87 -1 34 -8 66 -14 71 -6 5 -9 20 -6 34 2 15 0 25 -7 25 -15 0 -14 33 2
49 10 12 9 13 -7 7 -15 -5 -17 -2 -12 19 4 14 2 34 -4 45 -8 15 -8 20 1 20 8
0 8 4 1 13 -6 6 -10 23 -10 37 0 14 -5 56 -10 95 -4 38 -7 83 -6 100 1 16 5
71 9 120 3 50 11 114 16 144 5 29 7 56 4 60 -2 4 0 25 5 47 5 21 7 110 3 196
l-6 158 -27 0 c-63 0 -179 -63 -272 -147 -26 -24 -54 -43 -61 -43 -70 0 -214
-126 -267 -234 -30 -60 -32 -72 -27 -133 3 -38 1 -75 -3 -83 -5 -8 -50 -59
-102 -113 -51 -54 -106 -114 -123 -134 -117 -141 -160 -173 -235 -173 -26 0
-54 -9 -78 -24 -20 -13 -58 -27 -83 -30 -49 -7 -127 -34 -189 -66 -21 -11
-137 -53 -257 -94 -335 -114 -615 -230 -763 -317 -41 -24 -88 -51 -104 -59
-15 -8 -48 -34 -74 -57 -34 -32 -55 -43 -86 -46 l-41 -4 0 -94 0 -94 25 3 c14
2 30 8 36 13 5 4 26 6 45 3 31 -5 38 -2 53 21 15 22 23 26 47 21 16 -3 44 -9
62 -12 17 -4 47 -18 65 -31 18 -14 34 -23 36 -22 1 2 8 23 16 46 10 31 19 44
34 45 12 1 30 2 41 3 39 4 80 18 99 34 37 32 81 142 82 206 1 33 2 66 3 73 1
15 76 51 106 52 46 0 60 -123 41 -365 -13 -177 -32 -225 -117 -303 -103 -94
-179 -124 -389 -152 -78 -11 -213 -34 -267 -46 l-23 -4 0 -950 0 -950 28 6
c15 4 37 13 49 20 28 18 67 18 81 1 7 -8 9 -29 5 -50 -5 -33 -3 -37 15 -37 11
0 24 5 27 10 3 6 15 10 25 10 20 0 37 40 26 59 -11 17 -35 1 -39 -27 -3 -19
-4 -16 -3 8 1 32 4 35 34 38 28 3 32 0 32 -20 -1 -58 -60 -108 -127 -108 -44
0 -49 5 -45 53 1 9 -4 17 -11 18 -6 1 -31 2 -55 3 l-42 2 0 -53 0 -53 41 0
c52 0 48 -24 -4 -28 -36 -3 -37 -4 -37 -43 l0 -40 42 3 42 3 12 -51 c12 -55
17 -64 79 -138 41 -49 175 -146 201 -146 8 0 29 -7 46 -16 22 -11 56 -16 105
-16 83 1 105 9 80 27 -14 10 -10 15 29 40 l44 28 -30 18 c-32 20 -40 53 -15
63 8 3 30 -1 49 -9 42 -18 61 -1 21 17 -17 8 -25 18 -22 29 3 12 -1 15 -17 12
-21 -4 -21 -4 -1 11 11 9 28 23 38 31 9 8 21 15 26 15 14 0 71 59 71 74 0 7
10 20 22 29 l23 15 -28 11 c-38 15 -44 37 -18 65 19 20 20 24 6 36 -18 15 -20
61 -4 77 19 19 4 38 -42 53 -33 11 -43 12 -47 2 -5 -17 -37 -15 -52 3 -7 8
-20 15 -29 15 -13 1 -13 2 3 12 33 19 66 51 66 65 0 7 3 13 8 13 8 0 29 46 34
75 3 19 -23 37 -103 70 -17 7 -27 22 -33 51 l-9 40 -113 -4 c-81 -3 -118 -1
-129 8 -18 15 -31 78 -18 91 26 26 162 50 318 56 260 9 431 -18 564 -89 127
-68 214 -155 272 -273 27 -56 30 -71 30 -156 0 -169 -69 -330 -206 -478 -80
-87 -295 -232 -406 -274 -203 -77 -465 -56 -683 54 -71 36 -110 64 -173 125
-24 24 -47 44 -49 44 -2 0 -4 -137 -4 -305 l0 -305 1040 0 c654 1 1040 4 1040
10 0 6 -30 10 -66 10 -38 0 -63 4 -59 9 3 6 383 10 973 10 532 1 2269 4 3860
7 l2892 7 0 924 0 923 -56 0 c-72 0 -69 22 4 33 l52 9 0 98 c0 84 -2 98 -15
94 -12 -5 -15 4 -15 49 0 72 18 84 23 15 2 -29 4 58 5 194 l2 247 -22 4 -23 4
23 8 22 7 0 282 0 282 -37 13 c-49 18 -280 115 -361 152 -35 16 -65 29 -67 29
-4 0 -338 157 -484 227 -82 40 -96 44 -119 34 -21 -10 -31 -9 -57 5 -18 9 -40
14 -49 11 -39 -15 -27 -37 81 -147 63 -65 120 -133 136 -164 37 -71 31 -87
-82 -211 -20 -22 -70 -78 -111 -125 -93 -105 -87 -99 -135 -136 -59 -45 -104
-63 -249 -99 -72 -18 -132 -38 -134 -44 -2 -6 -8 -11 -13 -11 -17 0 -9 23 22
57 23 27 29 41 24 62 l-6 27 111 22 c60 12 130 31 154 43 92 43 236 225 236
298 0 47 -5 53 -69 85 -37 18 -57 23 -65 17 -7 -6 -29 -8 -49 -4 -29 4 -35 9
-27 18 8 9 8 15 0 20 -16 10 -12 23 11 30 11 4 18 9 16 12 -3 3 -15 2 -27 -2
-14 -5 -20 -13 -17 -24 5 -20 -11 -45 -33 -54 -11 -4 -9 -6 6 -6 11 -1 29 -8
40 -17 10 -8 14 -13 7 -10 -6 4 -16 -1 -22 -11 -9 -17 -10 -17 -30 1 -11 10
-23 31 -26 47 -8 34 -25 45 -97 60 -41 9 -49 13 -33 19 40 15 56 44 52 93 -3
32 0 51 10 59 12 10 9 13 -18 22 -39 13 -68 51 -71 91 -1 17 -14 43 -29 60
-15 17 -36 40 -47 52 -32 34 -45 64 -34 75 13 13 79 27 130 28 47 0 54 11 17
28 -25 12 -34 32 -15 32 25 0 -12 39 -47 50 -21 7 -46 20 -56 29 -22 19 -129
59 -281 106 -65 20 -119 44 -135 58 -14 13 -112 81 -218 150 -105 69 -196 134
-201 144 -6 10 -19 62 -31 115 -36 165 -63 213 -106 182 -10 -8 -31 -14 -46
-14 -36 0 -45 36 -22 85 14 30 21 35 40 30 13 -3 23 -1 23 5 0 5 -9 10 -21 10
-28 0 -79 37 -79 57 0 9 8 25 17 35 15 17 15 20 -12 48 -16 16 -65 47 -110 69
-76 38 -130 57 -312 110 -76 23 -86 35 -53 64 11 9 40 47 64 84 23 38 60 88
81 113 43 52 113 189 155 305 57 158 70 188 88 209 11 12 29 44 41 71 13 28
34 71 47 96 13 26 24 55 24 65 0 38 22 95 38 101 28 10 52 35 52 55 0 25 19
23 28 -3 7 -17 10 -18 19 -7 6 7 13 25 15 41 4 22 3 25 -9 16 -17 -14 -19 -12
-26 28 -8 40 6 51 28 21 15 -22 16 -20 10 45 -7 63 -6 67 14 67 26 0 41 28 41
75 0 20 7 49 15 66 14 27 14 30 0 35 -18 7 -14 42 12 104 11 28 16 32 24 20 8
-12 9 -11 5 6 -4 11 -2 41 4 67 5 26 15 68 20 95 6 26 11 64 12 84 1 21 7 39
15 42 7 3 13 17 13 31 0 14 4 25 9 25 5 0 9 31 9 69 -1 38 3 75 8 82 5 8 7 37
6 64 -3 41 0 54 17 69 17 15 23 16 36 6 8 -7 12 -16 9 -21 -3 -5 0 -36 7 -69
11 -59 12 -60 30 -39 10 11 20 26 23 32 3 9 7 8 14 -1 15 -21 25 34 11 60 -9
17 -9 20 3 15 21 -7 81 134 82 193 1 39 -2 45 -21 48 -15 2 -23 -2 -23 -11 0
-8 -37 -49 -82 -91 -76 -72 -120 -98 -136 -81 -11 11 -4 115 10 147 15 32 23
35 37 11 9 -17 10 -17 16 -1 8 22 68 42 100 34 18 -5 27 -1 35 13 16 31 12 51
-16 88 l-26 35 31 32 c17 18 28 36 24 40 -5 4 -1 6 7 4 10 -2 28 24 57 81 23
46 53 95 67 110 14 15 26 36 26 47 0 11 7 43 15 70 8 27 16 86 19 130 3 57 13
100 31 144 15 36 30 98 36 144 20 180 35 241 64 253 9 3 28 29 42 57 23 43 28
67 31 151 7 182 -49 384 -148 533 -52 77 -58 92 -39 92 6 0 9 6 7 13 -3 6 -9
12 -14 12 -18 0 -34 17 -34 36 0 26 30 37 45 16 17 -23 25 -21 22 6 -2 20 1
22 43 18 38 -3 51 -10 85 -47 34 -38 105 -76 105 -56 0 3 -7 51 -16 107 -13
76 -28 123 -64 200 -69 147 -77 164 -101 230 -12 33 -32 74 -45 90 -12 17 -29
49 -37 72 -21 60 -103 189 -152 237 -51 50 -134 110 -142 102 -4 -3 0 -6 7 -6
7 0 11 -3 8 -6 -4 -3 -21 2 -40 12 -18 10 -59 21 -91 25 -32 4 -66 14 -75 22
-9 8 -42 17 -72 21 -45 5 -150 26 -207 42 -23 6 -14 32 12 38 29 7 24 26 -6
26 -10 0 -19 4 -19 9 0 5 -23 17 -50 26 -49 16 -82 50 -103 107 -3 10 -19 21
-34 24 -15 4 -59 36 -98 71 -38 36 -92 78 -120 96 -51 32 -125 120 -149 179
-13 32 -29 101 -41 181 -5 29 -10 37 -27 37 -11 0 -49 18 -83 39 -34 22 -78
46 -96 54 -19 8 -86 64 -149 123 -110 104 -218 184 -267 199 -37 11 -26 -12
17 -36 22 -13 40 -28 40 -34 0 -6 9 -20 20 -31 57 -55 60 -58 54 -78 -4 -12
-3 -18 1 -14 9 8 39 -42 30 -50 -7 -7 -73 67 -86 98 -7 15 -32 35 -62 50 -72
35 -75 36 -48 6 31 -33 12 -33 -41 0 -59 37 -195 91 -264 103 -65 12 -308 13
-399 1z m945 -305 c10 -12 10 -15 -4 -15 -9 0 -16 7 -16 15 0 8 2 15 4 15 2 0
9 -7 16 -15z m-2540 -105 c0 -5 -7 -10 -15 -10 -8 0 -15 5 -15 10 0 6 7 10 15
10 8 0 15 -4 15 -10z m255 -41 c3 -4 1 -10 -5 -14 -13 -8 -52 13 -45 25 6 9
43 2 50 -11z m-440 -9 c3 -5 -1 -10 -10 -10 -9 0 -13 5 -10 10 3 6 8 10 10 10
2 0 7 -4 10 -10z m567 -20 c16 -14 18 -20 7 -20 -8 0 -20 9 -27 20 -7 11 -10
20 -7 20 3 0 15 -9 27 -20z m-536 -34 c14 -11 16 -18 8 -26 -19 -19 -59 -8
-62 18 -4 26 23 30 54 8z m280 -103 c-7 -7 -26 7 -26 19 0 6 6 6 15 -2 9 -7
13 -15 11 -17z m-546 -93 c0 -5 -7 -10 -15 -10 -8 0 -15 5 -15 10 0 6 7 10 15
10 8 0 15 -4 15 -10z m3369 -939 c17 -13 35 -17 65 -14 30 4 45 1 55 -11 7 -9
19 -16 25 -16 24 -1 76 -58 91 -99 22 -63 51 -99 83 -103 22 -2 27 -8 26 -28
-1 -13 5 -31 13 -38 7 -7 10 -18 7 -23 -3 -6 -3 -17 1 -27 5 -14 7 -14 16 -2
9 13 10 13 6 -1 -3 -9 0 -22 6 -28 9 -9 8 -14 -3 -21 -12 -8 -12 -10 2 -15 15
-6 17 -38 6 -84 -1 -8 9 -21 25 -28 34 -17 69 -84 66 -126 -3 -48 10 -79 32
-74 10 3 20 -2 23 -10 3 -8 10 -12 15 -9 5 3 14 -1 21 -9 7 -8 19 -15 26 -15
8 0 14 -4 14 -10 0 -5 -4 -10 -10 -10 -16 0 -12 -30 5 -36 9 -4 15 -19 15 -39
0 -43 9 -65 26 -65 10 0 14 -12 14 -40 0 -29 4 -40 15 -40 18 0 19 -4 3 -30
-10 -16 -10 -24 0 -40 7 -12 8 -20 2 -20 -14 0 -12 -16 3 -32 7 -7 14 -35 16
-62 1 -27 9 -62 17 -77 8 -16 15 -41 15 -56 1 -15 9 -46 19 -68 10 -22 23 -65
29 -95 17 -83 19 -91 34 -149 8 -29 12 -62 10 -72 -4 -12 0 -19 9 -19 23 0 35
-156 37 -463 1 -148 6 -305 12 -350 29 -257 21 -414 -36 -672 -15 -66 -29
-133 -32 -150 -2 -16 -11 -43 -18 -60 -7 -16 -16 -50 -20 -75 -4 -25 -14 -57
-21 -72 -8 -15 -19 -51 -26 -80 -10 -44 -12 -49 -18 -28 -7 31 -15 18 -25 -39
-7 -41 -9 -43 -21 -26 -16 22 -19 20 -27 -23 -4 -21 -3 -31 3 -27 6 3 10 1 10
-4 0 -6 -8 -11 -18 -11 -10 0 -19 -6 -20 -12 -1 -7 -4 -33 -7 -58 -6 -49 -28
-74 -57 -64 -13 4 -16 1 -12 -9 3 -9 -1 -17 -9 -19 -13 -3 -13 -8 3 -40 19
-40 16 -88 -6 -88 -8 0 -17 -7 -20 -15 -10 -25 -24 -17 -24 13 0 15 -5 34 -10
42 -7 11 -10 5 -10 -23 0 -23 -4 -36 -10 -32 -13 8 -13 -8 1 -22 12 -12 3 -53
-11 -53 -5 0 -7 7 -3 16 4 12 1 15 -13 12 -10 -2 -19 -10 -20 -18 -1 -8 -2
-25 -2 -37 -2 -28 -18 -30 -27 -4 -4 13 -12 17 -25 14 -15 -4 -17 -9 -10 -23
13 -24 13 -40 0 -40 -5 0 -10 9 -10 19 0 11 -5 23 -11 27 -8 5 -10 -3 -7 -27
3 -21 0 -38 -8 -47 -10 -10 -11 -19 -4 -32 11 -20 -2 -36 -20 -25 -5 3 -10 0
-10 -8 0 -8 -7 -20 -16 -28 -9 -7 -14 -22 -11 -36 3 -15 -1 -23 -9 -23 -8 0
-14 -3 -15 -7 -5 -60 -12 -88 -24 -100 -8 -8 -15 -18 -15 -22 0 -3 -13 -14
-29 -24 -25 -15 -30 -15 -35 -2 -10 26 -25 16 -32 -21 -6 -33 -8 -35 -35 -29
-21 5 -31 2 -35 -9 -3 -9 -23 -35 -44 -58 -22 -23 -37 -45 -34 -50 3 -4 1 -8
-5 -8 -5 0 -11 10 -13 22 -2 12 -19 33 -38 45 -19 13 -44 30 -54 38 -15 11
-24 12 -40 3 -13 -7 -16 -13 -8 -16 14 -4 17 -52 2 -52 -5 0 -12 11 -16 25 -8
34 -21 32 -29 -5 -4 -17 -15 -32 -27 -36 -21 -6 -21 -7 2 -19 13 -7 40 -10 62
-7 l38 5 0 -47 c0 -31 -4 -45 -11 -41 -5 4 -9 19 -7 33 3 26 1 27 -49 30 -29
2 -53 -1 -53 -6 0 -16 13 -22 27 -11 8 7 13 8 13 1 0 -5 9 -12 21 -15 26 -7
20 -32 -7 -32 -33 0 -47 -14 -32 -33 11 -13 10 -14 -12 -9 -14 3 -35 9 -47 12
-27 9 -45 -21 -22 -36 8 -5 15 -4 17 1 4 11 32 1 32 -11 0 -10 -40 -12 -64 -3
-8 3 -12 12 -9 20 6 17 -35 34 -83 34 -27 0 -34 -4 -34 -20 0 -10 10 -28 22
-40 24 -22 18 -26 -13 -10 -17 10 -19 7 -19 -20 0 -16 -4 -30 -10 -30 -5 0 -9
-3 -9 -7 4 -23 -5 -21 -46 13 -48 39 -67 39 -46 0 8 -14 10 -30 5 -38 -5 -7
-7 -21 -6 -30 4 -23 -5 -23 -26 -1 -16 16 -17 15 -22 -12 -6 -35 -26 -44 -35
-16 -3 12 -14 21 -23 21 -15 0 -15 -2 -2 -10 13 -9 13 -10 -1 -10 -22 0 -39
20 -39 47 0 29 -28 20 -32 -10 -2 -15 -11 -23 -29 -25 -22 -3 -28 2 -33 24 -4
15 -14 33 -23 39 -14 11 -14 14 5 33 26 26 27 35 7 52 -17 14 -39 4 -31 -16 3
-8 -1 -14 -9 -14 -8 0 -18 -7 -23 -17 -7 -12 -15 -14 -28 -7 -11 5 -47 9 -81
9 -58 0 -63 -2 -63 -22 0 -28 -16 -38 -28 -17 -9 15 -10 15 -16 -4 -4 -12 -12
-22 -17 -22 -16 0 -23 32 -11 51 16 26 16 27 -13 21 -22 -4 -25 -9 -25 -48 0
-35 -5 -47 -25 -60 -14 -9 -25 -25 -25 -35 0 -23 -16 -33 -24 -14 -8 22 -33
18 -46 -6 -7 -11 -20 -29 -31 -40 -16 -16 -19 -16 -19 -3 0 9 -7 14 -17 12
-11 -2 -17 -11 -15 -21 5 -28 -22 -19 -36 12 -13 30 -7 81 9 81 5 0 9 -9 9
-20 0 -28 14 -25 28 5 6 14 16 25 21 25 14 0 19 33 12 76 l-7 39 -37 -40 c-20
-22 -37 -45 -37 -51 0 -6 -7 -17 -15 -24 -8 -7 -15 -28 -15 -47 0 -30 -3 -34
-22 -31 -20 3 -23 8 -20 42 3 25 -1 42 -10 47 -10 7 -8 13 10 27 42 32 51 152
11 152 -10 0 -22 -7 -26 -15 -11 -18 -73 -32 -73 -16 0 6 -7 11 -15 11 -8 0
-15 -4 -15 -10 0 -5 7 -10 15 -10 17 0 19 -9 6 -29 -6 -9 -11 -10 -15 -3 -4 6
-14 8 -22 5 -13 -5 -15 -15 -10 -46 6 -33 4 -38 -9 -34 -11 5 -15 -1 -16 -21
-1 -15 -1 -30 0 -34 0 -5 -4 -8 -9 -8 -6 0 -10 8 -8 18 2 12 -3 16 -17 14 -37
-5 -43 -11 -50 -41 -7 -35 -25 -42 -25 -11 0 22 -10 26 -26 10 -12 -12 -11 86
2 159 l7 45 -33 -24 -33 -24 6 23 c4 17 2 21 -11 19 -10 -2 -23 -22 -32 -49
-9 -27 -20 -44 -28 -41 -8 2 -12 -8 -12 -33 0 -29 -3 -36 -17 -33 -15 3 -18
15 -20 68 -1 66 -20 159 -22 112 -1 -13 -8 -36 -16 -51 -8 -16 -12 -31 -8 -34
9 -9 -6 -58 -16 -52 -5 3 -12 24 -16 48 -11 64 -17 65 -32 6 -8 -30 -23 -63
-33 -74 -20 -20 -20 -19 -18 35 1 30 6 63 11 74 6 12 5 22 -2 29 -6 6 -11 28
-11 49 0 21 -4 38 -10 38 -5 0 -10 -5 -10 -11 0 -6 -6 -9 -12 -6 -7 2 -23 -5
-35 -16 -22 -20 -29 -14 -24 16 1 5 -6 7 -16 5 -10 -2 -19 -13 -21 -26 -2 -12
-8 -22 -13 -22 -6 0 -7 9 -4 20 4 12 2 20 -5 20 -7 0 -9 8 -5 19 4 15 -1 20
-27 24 -20 3 -42 -1 -56 -10 -22 -13 -24 -13 -29 7 -5 17 -11 20 -34 15 -16
-4 -29 -2 -29 3 0 12 -38 8 -52 -6 -9 -9 -9 -12 0 -12 7 0 12 -4 12 -10 0 -5
-6 -7 -14 -4 -9 3 -17 -3 -21 -16 -4 -12 -9 -19 -12 -16 -4 3 -12 1 -20 -6
-12 -10 -13 -7 -7 17 10 39 -12 24 -31 -21 -16 -40 -40 -46 -33 -9 6 28 -9 45
-18 21 -7 -17 -32 -29 -46 -20 -5 4 3 19 19 36 23 24 25 30 13 39 -13 8 -12
11 4 24 20 15 20 15 0 15 -10 0 -28 7 -38 15 -19 14 -19 15 -1 35 18 20 18 20
-8 20 -22 0 -27 6 -35 43 -6 23 -10 32 -11 21 -1 -27 -24 -46 -44 -38 -8 3
-24 1 -34 -4 -41 -22 -93 66 -61 105 6 7 3 16 -10 25 -10 7 -22 20 -25 28 -4
9 -6 4 -4 -10 3 -24 1 -25 -30 -22 -19 3 -33 10 -33 18 0 23 -21 27 -27 5 -4
-17 -8 -19 -20 -10 -9 8 -12 22 -7 43 l6 31 -27 -29 c-20 -22 -29 -26 -38 -17
-9 9 -8 17 1 32 16 24 12 32 -12 23 -9 -3 -17 -16 -17 -28 -2 -19 -13 47 -23
133 -2 18 -10 37 -17 42 -11 7 -10 11 5 22 11 8 20 29 21 51 3 37 3 37 -26 31
-28 -6 -29 -5 -24 18 6 22 3 26 -22 29 -22 2 -28 8 -27 27 1 14 -11 35 -28 51
-15 15 -28 35 -28 44 0 9 -7 28 -16 42 -15 23 -15 26 0 43 22 24 20 31 -13 42
-24 9 -31 18 -36 51 -6 31 -11 39 -24 35 -20 -5 -45 27 -45 58 -1 14 -9 21
-28 23 -14 2 -29 10 -32 18 -8 20 3 64 16 64 6 0 5 6 -2 15 -7 8 -23 15 -36
15 -18 0 -24 5 -24 23 0 13 -7 45 -17 72 -12 35 -13 50 -5 53 19 6 14 40 -9
63 -12 12 -19 29 -16 39 5 20 -10 30 -46 30 -38 0 -51 14 -37 40 18 33 4 36
-24 5 -20 -21 -26 -24 -26 -11 0 9 4 16 8 16 5 0 14 11 20 25 10 21 9 27 -2
31 -11 4 -12 13 -6 34 11 39 -2 85 -23 84 -13 -1 -14 2 -7 16 12 22 13 60 2
60 -7 0 -9 32 -16 260 -4 121 23 269 65 352 4 9 13 65 19 124 6 59 15 114 19
123 17 33 65 270 75 371 5 45 16 80 26 80 12 0 19 24 26 97 3 37 13 78 23 92
9 14 11 22 4 18 -17 -11 -16 1 1 18 7 8 17 30 20 51 4 20 16 45 26 56 10 11
21 31 25 45 3 13 18 37 34 52 15 15 34 41 42 59 9 21 25 36 46 43 54 18 56 23
68 183 4 45 13 89 22 102 16 25 11 60 -7 49 -5 -3 -10 -2 -10 4 0 5 5 11 11
13 6 2 13 17 14 32 2 16 8 33 14 39 6 6 11 17 11 24 0 6 11 23 25 37 14 14 25
31 25 38 0 8 14 22 30 32 23 13 29 23 25 37 -4 13 -2 19 9 19 9 0 16 -4 16
-10 0 -5 8 -10 18 -9 10 0 12 3 5 6 -23 9 -13 22 35 45 26 12 50 24 55 26 4 2
4 -4 0 -14 -6 -17 -5 -17 17 -1 14 9 32 17 42 17 10 0 18 4 18 9 0 4 22 11 49
14 57 7 164 54 205 91 16 14 33 26 38 26 13 0 89 53 193 135 131 103 191 138
226 130 18 -4 29 -2 29 4 0 16 50 37 103 45 27 3 54 9 60 13 6 4 20 7 31 8 12
1 33 5 47 9 18 5 31 3 41 -8 14 -14 16 -13 21 3 3 13 18 20 51 24 56 8 267 -2
281 -13 6 -4 37 -2 71 5 66 14 187 15 200 2 11 -10 -15 -27 -32 -20 -6 2 -15
0 -19 -6 -7 -13 -151 -15 -159 -2 -3 5 -26 5 -53 -1 -57 -11 -90 -15 -121 -17
-13 0 -21 -5 -17 -10 7 -13 340 -14 362 -2 34 19 150 27 234 18 56 -6 88 -6
100 1 11 7 30 7 55 1 31 -7 46 -5 73 9 26 13 35 14 38 5 6 -16 33 -17 33 -2 0
6 6 9 14 6 7 -3 18 -1 24 5 6 6 39 11 74 12 35 0 66 5 69 9 14 19 242 25 263
8 7 -6 15 -8 19 -5 3 3 39 7 81 9 45 2 83 9 96 18 12 8 29 13 40 10 10 -3 21
0 24 6 10 16 28 13 55 -8z m-2531 -190 c-18 -16 -35 -27 -38 -25 -5 5 51 53
63 54 4 0 -7 -13 -25 -29z m-275 -268 c-13 -2 -33 -2 -45 0 -13 2 -3 4 22 4
25 0 35 -2 23 -4z m4207 -109 c0 -14 -3 -14 -15 -4 -8 7 -15 14 -15 16 0 2 7
4 15 4 8 0 15 -7 15 -16z m-4527 -11 c-7 -3 -13 -11 -13 -19 0 -9 -5 -12 -11
-9 -7 5 -4 14 7 26 9 11 20 16 23 13 3 -4 0 -9 -6 -11z m-49 -70 c-3 -16 -15
-35 -25 -45 -10 -9 -19 -21 -19 -27 0 -19 -39 -12 -50 9 -9 16 -7 22 7 27 20
8 36 19 61 45 25 24 33 21 26 -9z m3723 -55 c-3 -8 -6 -5 -6 6 -1 11 2 17 5
13 3 -3 4 -12 1 -19z m870 -170 c13 -12 23 -33 23 -48 0 -14 4 -30 9 -35 19
-20 80 -224 91 -308 12 -86 7 -212 -9 -222 -5 -2 -14 15 -21 38 -6 23 -16 52
-21 65 -5 13 -9 34 -9 47 0 32 -15 95 -51 219 -16 55 -27 101 -25 103 1 2 15
-14 29 -34 l27 -38 0 30 c0 16 -6 47 -14 70 -8 22 -17 52 -20 67 -4 15 -16 37
-28 48 -12 11 -18 20 -13 20 5 0 19 -10 32 -22z m-42 -64 c19 -46 19 -50 -1
-34 -21 19 -36 49 -29 60 10 16 14 12 30 -26z m-4705 -234 c0 -5 -5 -10 -11
-10 -5 0 -7 5 -4 10 3 6 8 10 11 10 2 0 4 -4 4 -10z m4830 -346 c0 -8 -5 -12
-10 -9 -6 4 -8 11 -5 16 9 14 15 11 15 -7z m-5240 -1874 c0 -5 -6 -10 -14 -10
-8 0 -18 5 -21 10 -3 6 3 10 14 10 12 0 21 -4 21 -10z m224 -386 c9 -22 8 -24
-9 -24 -8 0 -15 9 -15 20 0 24 15 27 24 4z m76 -94 c0 -5 -2 -10 -4 -10 -3 0
-8 5 -11 10 -3 6 -1 10 4 10 6 0 11 -4 11 -10z m-261 -29 c-15 -5 -22 6 -14
19 6 9 10 9 16 -1 5 -8 4 -15 -2 -18z m81 -11 c0 -5 -7 -10 -15 -10 -8 0 -15
5 -15 10 0 6 7 10 15 10 8 0 15 -4 15 -10z m163 -98 c-3 -12 -9 -22 -14 -22
-12 0 -11 7 3 30 15 24 19 21 11 -8z m3914 -238 c-3 -3 -12 -4 -19 -1 -8 3 -5
6 6 6 11 1 17 -2 13 -5z m-4055 -53 c-1 -13 3 -30 9 -37 6 -8 9 -21 5 -29 -3
-8 -1 -15 4 -15 5 0 7 -6 4 -14 -3 -7 2 -16 10 -19 9 -4 16 -16 16 -27 0 -16
-5 -21 -22 -18 -23 3 -36 36 -43 108 -2 19 -7 46 -11 59 -6 19 -4 22 12 19 13
-3 18 -11 16 -27z m138 -11 c0 -13 -7 -20 -20 -20 -13 0 -20 7 -20 20 0 13 7
20 20 20 13 0 20 -7 20 -20z m-68 -45 c-4 -24 -32 -37 -32 -15 0 6 5 10 10 10
6 0 10 9 10 21 0 11 4 18 9 15 4 -3 6 -17 3 -31z m148 5 c0 -5 7 -7 15 -4 17
7 17 7 19 -59 1 -27 -2 -51 -6 -53 -4 -3 -8 -16 -8 -30 0 -13 -4 -24 -8 -24
-4 0 -8 32 -8 71 -1 38 -6 75 -13 82 -14 14 -14 27 -1 27 6 0 10 -4 10 -10z
m153 -24 c4 -10 1 -13 -9 -9 -7 3 -14 9 -14 14 0 14 17 10 23 -5z m-188 -36
c3 -5 1 -10 -4 -10 -6 0 -11 5 -11 10 0 6 2 10 4 10 3 0 8 -4 11 -10z m-124
-98 c23 3 24 0 23 -49 0 -56 -6 -69 -24 -58 -7 4 -8 11 -3 16 16 16 3 64 -20
74 -11 6 -23 17 -25 25 -4 12 -3 13 10 2 8 -7 26 -11 39 -10z m239 -12 c0 -5
-4 -10 -10 -10 -5 0 -10 5 -10 10 0 6 5 10 10 10 6 0 10 -4 10 -10z m293 -120
c-3 -12 -8 -19 -11 -16 -5 6 5 36 12 36 2 0 2 -9 -1 -20z m-453 -4 c0 -2 -7
-6 -15 -10 -8 -3 -15 -1 -15 4 0 6 7 10 15 10 8 0 15 -2 15 -4z m720 -161 c0
-2 -11 -15 -25 -29 l-25 -25 0 24 c0 22 11 33 38 34 6 1 12 -1 12 -4z m2600
-15 c0 -11 -2 -20 -5 -20 -2 0 -9 9 -15 20 -9 16 -8 20 5 20 8 0 15 -9 15 -20z
m-2340 -14 c0 -15 -18 -31 -26 -23 -7 7 7 37 17 37 5 0 9 -6 9 -14z m120 -5
c0 -5 -7 -12 -16 -15 -24 -9 -28 -7 -14 9 14 17 30 20 30 6z m-400 -65 c0 -3
-4 -8 -10 -11 -5 -3 -10 -1 -10 4 0 6 5 11 10 11 6 0 10 -2 10 -4z m1707 -163
c-3 -10 -5 -2 -5 17 0 19 2 27 5 18 2 -10 2 -26 0 -35z m73 27 c0 -5 -4 -10
-10 -10 -5 0 -10 5 -10 10 0 6 5 10 10 10 6 0 10 -4 10 -10z m-1603 -132 c-3
-7 -5 -2 -5 12 0 14 2 19 5 13 2 -7 2 -19 0 -25z m-839 -54 c-10 -10 -28 6
-28 24 0 15 1 15 17 -1 9 -9 14 -19 11 -23z m1886 4 c-8 -49 -34 -118 -45
-118 -12 0 -12 -1 6 66 20 76 50 116 39 52z m-1844 -58 c0 -19 -11 -26 -23
-14 -8 8 3 34 14 34 5 0 9 -9 9 -20z m1690 11 c0 -6 -4 -13 -10 -16 -5 -3 -10
1 -10 9 0 9 5 16 10 16 6 0 10 -4 10 -9z m-1610 -51 c0 -5 -4 -10 -9 -10 -6 0
-13 5 -16 10 -3 6 1 10 9 10 9 0 16 -4 16 -10z m1720 -44 c0 -3 -4 -8 -10 -11
-5 -3 -10 -1 -10 4 0 6 5 11 10 11 6 0 10 -2 10 -4z m-1803 -62 c-3 -3 -12 -4
-19 -1 -8 3 -5 6 6 6 11 1 17 -2 13 -5z m-842 -654 c-16 -32 -42 -42 -30 -12
12 32 25 114 25 163 0 97 15 81 18 -18 2 -78 -1 -110 -13 -133z m125 128 c0
-13 -23 -5 -28 10 -2 7 2 10 12 6 9 -3 16 -11 16 -16z m189 -360 c-3 -66 16
-179 41 -246 7 -18 10 -35 8 -38 -10 -9 -58 143 -64 203 -6 56 0 113 11 113 3
0 4 -15 4 -32z m4366 -5 c-10 -75 -63 -294 -75 -306 -4 -5 -5 3 -3 17 4 21 0
26 -28 34 l-34 10 35 8 c29 6 31 8 15 15 -17 7 -18 8 -2 8 11 1 17 9 17 24 0
18 2 19 10 7 6 -9 10 -10 10 -3 0 6 3 20 6 30 5 15 4 16 -6 3 -10 -13 -11 -12
-5 5 4 11 10 31 13 45 3 14 9 27 13 30 5 4 10 24 11 45 2 32 12 54 25 55 0 0
-1 -12 -2 -27z m-4435 -37 c4 -20 4 -36 0 -36 -11 0 -31 60 -24 72 9 14 15 4
24 -36z m4387 -23 c-11 -12 -16 -12 -22 -2 -5 8 -4 10 3 5 7 -4 14 4 19 21 5
22 8 24 11 9 2 -10 -3 -25 -11 -33z m147 8 c-4 -17 -9 -30 -11 -27 -3 2 -2 19
2 36 9 41 17 33 9 -9z m-5465 0 c36 -23 -42 -99 -117 -115 -34 -8 -72 0 -72
15 0 5 18 9 40 9 39 0 110 23 110 35 0 20 -24 45 -43 46 -14 1 -10 4 13 9 50
11 54 11 69 1z m3851 -1 c0 -5 -5 -10 -11 -10 -5 0 -7 5 -4 10 3 6 8 10 11 10
2 0 4 -4 4 -10z m-3279 -63 c-6 -6 -11 -19 -11 -30 0 -10 -4 -15 -10 -12 -14
9 -12 30 7 73 l17 37 4 -29 c2 -16 -1 -33 -7 -39z m33 -29 c-6 -20 -24 -41
-30 -35 -8 8 11 57 23 57 10 0 12 -6 7 -22z m2992 -13 c-19 -14 -36 -12 -36 6
0 5 12 9 28 9 26 -1 26 -1 8 -15z m-3112 -66 c-24 -27 -30 -16 -7 14 10 14 20
21 22 15 1 -5 -5 -18 -15 -29z m6116 36 c0 -2 -10 -9 -21 -16 -17 -9 -20 -8
-14 1 8 13 -16 11 -60 -5 -20 -7 -20 -6 -1 9 18 14 96 23 96 11z m-3110 -26
c0 -5 -7 -9 -15 -9 -9 0 -12 6 -9 15 6 15 24 11 24 -6z m-2556 -110 c14 -17
26 -36 26 -42 0 -23 -18 -40 -35 -33 -17 6 -45 -9 -45 -25 0 -4 15 -5 34 -2
28 4 36 1 46 -17 9 -17 8 -26 -4 -44 -15 -24 -12 -60 7 -84 11 -14 -14 -48
-43 -57 -35 -11 -52 -101 -26 -128 8 -8 14 -23 14 -33 -1 -11 2 -32 7 -49 10
-38 7 -62 -12 -91 -20 -32 -90 -70 -138 -77 -22 -3 -83 -13 -135 -23 -100 -17
-337 -21 -353 -5 -20 20 8 49 98 106 146 92 249 169 261 196 6 13 19 51 28 84
10 33 22 74 27 91 5 17 9 43 9 58 0 40 24 80 72 119 53 43 118 87 129 87 4 0
19 -14 33 -31z m141 -9 c25 -55 15 -58 -12 -4 -12 24 -19 44 -14 44 4 0 16
-18 26 -40z m4166 4 c9 -26 10 -26 24 -8 19 25 19 15 0 -30 -13 -30 -18 -34
-29 -24 -9 8 -10 15 -4 19 6 4 7 12 4 18 -4 6 -12 8 -18 5 -8 -5 -9 -1 -5 10
4 10 7 22 7 27 0 18 11 9 21 -17z m480 -68 c49 -28 89 -86 89 -129 0 -30 49
-82 95 -102 17 -7 39 -23 49 -34 15 -17 31 -21 81 -21 34 0 76 5 93 11 26 9
39 7 74 -9 24 -11 60 -27 81 -36 21 -9 37 -22 34 -29 -3 -9 -72 -12 -289 -12
-298 0 -318 3 -318 44 0 9 -5 23 -10 31 -8 12 -14 11 -41 -9 -38 -28 -62 -20
-67 23 -3 24 -1 26 37 26 34 0 41 3 41 19 0 37 -19 71 -65 114 -40 38 -46 51
-52 97 -5 43 -3 55 11 65 19 14 75 -3 157 -49z m-495 -53 c-13 -24 -15 -25
-16 -7 0 11 5 25 12 32 19 19 21 6 4 -25z m-56 -33 c0 -11 -4 -20 -9 -20 -5 0
-7 9 -4 20 3 11 7 20 9 20 2 0 4 -9 4 -20z m28 -23 c-13 -25 -17 -18 -11 16 4
20 8 25 14 16 4 -7 3 -21 -3 -32z m-203 -27 c3 -5 -1 -10 -9 -10 -9 0 -16 5
-16 10 0 6 4 10 9 10 6 0 13 -4 16 -10z m-6190 -70 c3 -5 1 -10 -4 -10 -6 0
-11 5 -11 10 0 6 2 10 4 10 3 0 8 -4 11 -10z m2233 -302 c6 -51 -75 -93 -106
-55 -9 11 -1 16 38 26 50 13 60 26 38 50 -11 10 -9 12 7 9 13 -2 21 -12 23
-30z m592 -42 c0 -3 -4 -8 -10 -11 -5 -3 -10 -1 -10 4 0 6 5 11 10 11 6 0 10
-2 10 -4z m4576 -570 c-9 -41 -16 -86 -16 -100 0 -14 -5 -28 -11 -32 -15 -9
-8 72 17 196 17 83 19 90 22 53 2 -23 -4 -76 -12 -117z m288 102 c3 -7 7 -42
10 -78 7 -77 -11 -72 -20 6 -4 27 -10 53 -15 59 -14 14 -11 25 6 25 9 0 17 -6
19 -12z m-5438 -44 c-3 -9 5 -29 19 -48 30 -40 32 -50 5 -34 -11 7 -20 18 -20
25 0 7 -4 13 -10 13 -11 0 -14 43 -3 53 11 12 15 8 9 -9z m5632 -46 c7 -7 12
-21 12 -33 0 -29 -19 -45 -52 -45 -18 0 -33 -8 -43 -24 -24 -36 -6 -70 49 -94
52 -24 67 -48 69 -110 2 -42 -1 -47 -33 -66 -48 -28 -149 -29 -179 -2 -28 25
-28 90 -1 131 29 44 26 77 -11 99 -28 17 -29 19 -12 32 10 7 25 14 34 14 8 0
19 4 25 9 5 5 23 11 39 13 25 2 31 8 33 33 5 45 44 69 70 43z m-2136 -38 c-9
-16 -22 -30 -29 -30 -6 0 -14 -8 -16 -17 -3 -13 -5 -14 -6 -3 -1 15 48 79 61
80 4 0 -1 -13 -10 -30z m1833 10 c12 -13 15 -27 11 -46 -5 -17 -1 -35 8 -50
18 -27 4 -43 -20 -23 -12 9 -15 24 -11 51 5 34 3 38 -13 33 -22 -7 -35 22 -19
41 15 19 23 18 44 -6z m-700 -30 c-19 -38 -19 -75 2 -139 38 -118 120 -84 139
57 7 52 17 65 28 36 11 -28 6 -89 -10 -137 -18 -54 -38 -63 -112 -53 -55 7
-66 19 -88 95 l-16 55 -19 -24 c-10 -14 -33 -49 -51 -77 -34 -55 -48 -66 -48
-35 0 17 39 81 106 172 55 76 99 108 69 50z m-1205 -34 c0 -8 -7 -16 -15 -20
-12 -4 -13 -2 -2 14 14 24 17 25 17 6z m1574 -19 c25 -18 35 -77 23 -137 -7
-38 -14 -50 -26 -48 -10 2 -15 11 -12 23 20 114 7 149 -47 121 -20 -10 -34
-30 -46 -63 -33 -92 -36 -97 -49 -84 -8 8 -8 23 2 59 18 68 42 105 81 124 42
21 51 22 74 5z m716 -30 c12 -21 12 -29 2 -39 -16 -16 -30 -2 -38 41 -6 26 -4
33 7 29 8 -3 21 -16 29 -31z m-2280 3 c0 -5 -4 -10 -9 -10 -5 0 -13 -9 -16
-21 -5 -15 -10 -18 -18 -10 -7 7 -5 16 8 31 20 22 35 26 35 10z m1680 -124 c0
-93 -11 -136 -35 -136 -26 0 -28 27 -11 113 22 102 23 107 36 107 6 0 10 -33
10 -84z m101 31 c-4 -64 15 -117 40 -117 52 0 89 54 89 130 0 46 12 51 36 15
14 -21 15 -33 6 -63 -6 -20 -13 -56 -17 -79 -7 -44 -30 -59 -41 -28 -4 8 -12
15 -19 15 -7 0 -18 -7 -25 -15 -19 -23 -52 -18 -77 12 -19 21 -23 38 -23 89 0
69 7 97 23 91 7 -2 10 -23 8 -50z m-1881 14 c0 -11 -4 -23 -10 -26 -6 -4 -10
5 -10 19 0 14 5 26 10 26 6 0 10 -9 10 -19z m2603 -1 c37 -30 42 -54 18 -103
-29 -58 -59 -77 -134 -84 -51 -4 -66 -2 -80 11 -33 34 -21 41 70 41 87 0 88 0
102 29 9 20 11 37 5 55 -13 35 -60 39 -136 11 -66 -24 -83 -20 -52 11 48 48
163 64 207 29z m-2653 -74 c0 -7 -6 -19 -14 -25 -11 -9 -12 -6 -8 14 5 26 22
35 22 11z m3897 -138 c-2 -13 -4 -5 -4 17 -1 22 1 32 4 23 2 -10 2 -28 0 -40z
m-4450 -313 c-30 -27 -15 -34 17 -10 11 8 27 15 35 15 9 0 -16 -17 -54 -38
-39 -20 -84 -47 -102 -60 -17 -12 -46 -25 -64 -29 l-32 -6 45 41 c25 23 53 42
62 42 10 0 14 5 11 10 -3 6 5 14 19 20 14 5 26 14 26 20 0 6 4 9 8 6 4 -2 14
-1 22 5 30 18 34 8 7 -16z m2062 -609 c285 -73 476 -247 576 -525 30 -83 31
-103 5 -126 -11 -10 -20 -28 -20 -41 0 -26 -30 -47 -54 -38 -26 10 -18 30 24
59 42 29 44 33 32 51 -14 21 -51 34 -101 34 l-49 0 -21 63 c-59 176 -254 347
-396 347 -49 0 -55 -3 -94 -45 -22 -24 -41 -48 -41 -52 0 -4 12 -20 28 -36 27
-28 27 -29 7 -43 -11 -8 -29 -22 -41 -32 -39 -33 -80 -59 -100 -66 -12 -3 -42
-28 -67 -55 -44 -47 -45 -49 -30 -72 9 -13 23 -29 31 -36 20 -16 8 -43 -20
-43 -15 0 -29 -10 -40 -29 -15 -28 -15 -30 3 -47 23 -21 25 -47 4 -64 -8 -7
-15 -19 -15 -26 0 -7 -13 -20 -29 -28 -29 -15 -44 -47 -34 -71 7 -20 30 -7 37
21 4 13 11 24 17 24 6 0 9 -9 6 -20 -7 -28 6 -33 26 -9 18 21 37 18 37 -7 0
-8 5 -14 11 -14 18 0 46 42 41 62 -5 22 -5 22 -44 -2 -31 -19 -58 -14 -58 11
0 13 46 32 97 40 19 3 33 -2 33 -12 0 -7 8 -18 18 -25 16 -12 14 -16 -23 -48
-142 -127 -142 -124 -53 -207 63 -60 70 -70 64 -94 l-7 -27 123 3 c78 3 123 0
123 -6 0 -7 -138 -9 -399 -7 l-399 2 -50 27 c-54 30 -159 138 -187 193 -50 98
-66 286 -36 425 37 172 187 373 369 492 82 53 222 107 325 123 98 15 256 5
371 -24z m-6801 -222 c2 -16 11 -37 19 -46 20 -22 2 -48 -33 -48 -27 0 -40 30
-25 59 6 11 11 32 11 46 0 36 24 27 28 -11z m7949 -21 l53 -17 0 -70 0 -71
-40 -23 c-45 -25 -49 -21 -20 23 24 36 26 88 4 109 -10 10 -33 16 -65 16 -40
0 -55 -5 -74 -25 -30 -29 -30 -36 -6 -103 23 -68 34 -78 63 -65 30 13 85 0
111 -25 14 -14 22 -38 25 -76 4 -53 3 -55 -23 -62 -15 -4 -31 -2 -38 5 -8 8
-6 11 7 11 16 0 17 6 11 48 -4 26 -9 50 -12 55 -8 14 -22 7 -16 -8 3 -9 2 -15
-3 -14 -36 6 -46 -21 -20 -56 8 -11 11 -25 9 -33 -3 -7 3 -19 13 -27 26 -19 6
-37 -36 -33 l-33 3 -2 65 c0 36 -6 73 -12 84 -13 23 -41 18 -64 -14 -27 -36
-15 -68 27 -76 39 -7 44 -21 11 -29 -35 -9 -77 11 -77 36 0 15 -5 19 -15 15
-18 -7 -18 -7 0 37 8 19 28 46 45 60 36 31 37 41 5 79 -54 64 -40 138 35 176
53 26 67 27 137 5z m-8046 -6 c-1 -4 -1 -16 -1 -27 0 -19 -25 -38 -35 -28 -9
8 17 69 27 66 5 -2 9 -7 9 -11z m273 -26 c3 -4 -3 -16 -14 -26 -31 -28 -93 -1
-63 28 9 10 71 8 77 -2z m3856 -281 l0 -190 -55 0 c-35 0 -55 -4 -55 -11 0 -8
17 -10 55 -6 l56 6 -3 -117 -3 -116 -41 -1 c-23 -1 -56 -11 -77 -24 l-37 -23
-29 21 c-37 27 -45 26 -66 -5 -17 -26 -30 -27 -97 -8 -15 4 -18 -1 -19 -28 0
-18 -4 -51 -8 -73 -8 -39 -8 -39 -19 -15 -10 24 -11 24 -11 3 -1 -18 -6 -22
-23 -19 -13 3 -25 5 -28 6 -3 2 -8 2 -12 1 -5 0 -8 5 -8 12 0 7 10 13 22 14
26 2 40 21 34 47 -3 11 2 26 12 34 16 13 16 13 0 8 -23 -7 -33 30 -24 85 4 27
3 38 -4 34 -5 -3 -10 -35 -10 -71 0 -54 -3 -64 -17 -64 -13 0 -14 -3 -5 -12 7
-7 12 -20 12 -30 0 -16 -3 -17 -21 -6 -18 11 -23 10 -32 -3 -9 -14 -12 -14
-29 3 -20 20 -20 20 -36 -4 -9 -12 -17 -27 -17 -33 0 -5 -4 -10 -9 -10 -5 0
-13 -11 -17 -24 -6 -15 -14 -21 -24 -17 -8 3 -15 1 -15 -4 0 -6 7 -10 16 -10
9 0 14 -6 11 -12 -2 -7 -10 -12 -17 -10 -7 2 -16 -2 -20 -8 -7 -11 -36 -15
-87 -11 -21 1 -23 6 -23 69 0 120 53 292 141 459 89 170 157 250 254 300 90
46 115 52 253 52 l132 1 0 -190z m-3810 104 c0 -8 -4 -14 -10 -14 -5 0 -10 9
-10 21 0 11 5 17 10 14 6 -3 10 -13 10 -21z m7476 1 c7 -18 -12 -45 -32 -45
-9 0 -14 11 -14 30 0 23 4 30 20 30 11 0 23 -7 26 -15z m-131 -62 c-9 -38 -25
-53 -68 -60 -39 -6 -67 12 -67 43 0 14 7 16 44 11 35 -5 47 -3 61 13 26 28 38
25 30 -7z m105 -78 c5 -14 14 -25 20 -25 20 0 9 -40 -15 -56 -24 -16 -27 -16
-40 2 -8 12 -10 23 -4 29 5 5 9 18 9 29 0 18 -1 19 -20 1 -11 -10 -20 -24 -20
-32 0 -7 -4 -13 -10 -13 -5 0 -10 13 -10 29 0 54 72 83 90 36z m273 5 c-3 -11
-9 -20 -14 -20 -11 0 -11 3 -3 24 9 23 23 20 17 -4z m-1336 -7 c4 -11 -32 -25
-41 -15 -8 8 15 33 27 29 6 -2 12 -8 14 -14z m899 -75 c8 -27 -22 -54 -43 -37
-16 14 -17 31 -1 47 18 18 36 14 44 -10z m-246 0 c-1 -7 -16 -23 -36 -35 l-34
-22 6 27 c4 15 9 30 11 35 7 12 53 8 53 -5z m-126 -34 c19 -7 21 -41 4 -47 -7
-2 -18 3 -25 12 -10 14 -13 14 -32 -3 -31 -28 -51 -6 -22 23 21 21 46 26 75
15z m536 -60 c0 -14 -28 -26 -41 -18 -11 6 -12 58 -2 68 8 8 42 -33 43 -50z
m190 39 c0 -15 2 -15 9 -4 5 8 23 16 41 18 25 2 31 0 26 -12 -3 -8 -1 -15 3
-15 5 0 11 5 13 12 2 6 11 9 20 6 12 -5 16 -22 16 -72 0 -58 -3 -66 -19 -66
-12 0 -19 -7 -19 -20 0 -11 -5 -20 -11 -20 -6 0 -9 9 -6 20 3 11 1 20 -4 20
-5 0 -9 -8 -9 -18 0 -13 -8 -17 -32 -17 -18 0 -37 3 -43 6 -5 4 -19 3 -29 -1
-24 -8 -64 -1 -73 13 -10 16 28 39 44 26 7 -7 25 -9 41 -6 15 2 36 1 47 -3 13
-5 24 -2 32 9 6 9 19 16 28 16 26 0 40 44 17 51 -9 3 -33 12 -52 20 -19 7 -59
12 -88 11 -42 -2 -52 1 -52 14 0 23 5 26 55 27 37 2 45 -1 45 -15z m-1216 -19
c22 -8 20 -27 -4 -49 -20 -18 -21 -18 -42 3 -18 17 -19 23 -8 36 13 17 29 20
54 10z m389 -9 c7 -18 -6 -27 -27 -19 -11 4 -19 -2 -25 -17 -5 -13 -7 -27 -4
-31 8 -15 42 -8 46 10 4 13 5 12 6 -5 2 -38 -59 -54 -72 -20 -8 24 14 78 36
87 31 12 34 12 40 -5z m-118 -30 c0 -16 -6 -30 -14 -33 -10 -3 -12 0 -7 14 6
15 5 17 -5 7 -15 -15 -39 -17 -39 -5 0 15 42 53 53 49 7 -2 12 -16 12 -32z
m655 -16 c0 -14 -58 -39 -74 -33 -22 9 -20 28 6 58 l23 25 22 -21 c13 -12 23
-25 23 -29z m-350 -1 c0 -17 -3 -28 -6 -25 -11 10 -13 67 -3 61 5 -3 9 -19 9
-36z m200 17 c0 -16 -6 -25 -15 -25 -9 0 -15 9 -15 25 0 16 6 25 15 25 9 0 15
-9 15 -25z m-621 -11 l24 -25 -19 -26 c-19 -25 -87 -57 -108 -50 -5 2 -3 9 5
17 9 8 13 25 11 41 -9 64 42 90 87 43z m326 -6 c43 -37 24 -83 -32 -76 -33 4
-40 26 -23 69 15 35 22 36 55 7z m198 -34 c-9 -23 -42 -16 -49 10 -3 14 -3 30
1 36 10 16 55 -28 48 -46z m-808 -54 c-3 -5 -13 -10 -21 -10 -8 0 -12 5 -9 10
3 6 13 10 21 10 8 0 12 -4 9 -10z m982 -59 c42 4 81 6 85 3 15 -9 9 -62 -8
-68 -33 -13 -44 -6 -45 27 l-1 32 -7 -29 c-7 -35 -23 -37 -33 -4 -5 20 -6 18
-7 -9 -1 -28 -4 -32 -23 -29 -14 2 -25 12 -28 27 -6 23 -6 23 -12 3 -4 -16
-15 -23 -41 -26 -50 -5 -57 -1 -57 39 0 27 4 34 17 31 9 -2 20 -14 24 -28 l7
-25 1 27 c1 26 27 42 43 28 5 -3 43 -3 85 1z m133 -32 c0 -28 -4 -39 -12 -37
-24 8 -22 78 2 78 5 0 10 -18 10 -41z m60 18 c0 -25 -17 -47 -37 -47 -8 0 -13
13 -13 35 0 31 3 35 25 35 19 0 25 -5 25 -23z m121 -2 c6 -17 8 -17 8 -2 1 11
9 17 25 17 38 0 55 -10 50 -28 -3 -9 1 -6 8 7 11 22 15 23 82 16 78 -7 86 -10
86 -30 0 -23 -19 -28 -44 -11 -22 14 -24 14 -29 -5 -5 -18 -12 -19 -86 -16
-44 2 -83 6 -87 10 -3 3 -19 3 -35 0 -19 -3 -29 -1 -29 6 0 7 -4 9 -10 6 -10
-6 -15 37 -5 46 13 14 59 2 66 -16z m169 -109 c0 -10 -24 -15 -101 -18 -113
-4 -129 -14 -129 -74 l0 -32 85 -7 c46 -4 89 -4 95 0 16 10 62 -3 55 -15 -4
-6 -62 -10 -134 -10 l-128 0 -7 38 c-11 67 -8 81 18 88 13 3 26 14 29 25 5 17
15 19 111 19 84 0 106 -3 106 -14z m-4267 -73 c-7 -2 -19 -2 -25 0 -7 3 -2 5
12 5 14 0 19 -2 13 -5z m47 -3 c0 -5 -5 -10 -11 -10 -5 0 -7 5 -4 10 3 6 8 10
11 10 2 0 4 -4 4 -10z m-32 -45 c1 -29 -2 -35 -18 -35 -21 0 -24 10 -14 48 10
35 31 26 32 -13z m-2393 -145 c3 -5 -3 -10 -15 -10 -12 0 -18 5 -15 10 3 6 10
10 15 10 5 0 12 -4 15 -10z m-142 -7 c-7 -2 -19 -2 -25 0 -7 3 -2 5 12 5 14 0
19 -2 13 -5z m80 0 c-7 -2 -19 -2 -25 0 -7 3 -2 5 12 5 14 0 19 -2 13 -5z
m150 0 c-13 -2 -33 -2 -45 0 -13 2 -3 4 22 4 25 0 35 -2 23 -4z"/>
<path d="M4205 10410 c-3 -5 1 -10 10 -10 9 0 13 5 10 10 -3 6 -8 10 -10 10
-2 0 -7 -4 -10 -10z"/>
<path d="M3797 9354 c-4 -4 -28 -10 -55 -15 -75 -11 -201 -64 -262 -109 -70
-52 -200 -180 -200 -197 0 -11 6 -10 29 2 58 29 121 46 138 37 9 -5 34 -7 55
-5 30 5 38 2 38 -10 0 -10 6 -14 15 -11 8 4 15 1 15 -6 0 -8 -8 -10 -21 -7
-23 6 -49 -1 -49 -13 0 -4 10 -12 23 -18 18 -9 16 -9 -17 -5 -28 4 -37 3 -32
-5 10 -16 154 -12 188 4 17 9 43 12 72 8 46 -7 57 1 34 24 -9 9 -5 12 21 12
18 0 41 -5 51 -10 11 -6 66 -13 122 -15 57 -3 119 -11 138 -19 19 -8 43 -17
52 -20 23 -7 13 -33 -15 -42 -12 -4 -33 -15 -47 -25 -18 -13 -59 -21 -149 -29
-68 -6 -143 -18 -165 -25 -23 -8 -72 -19 -111 -26 -38 -7 -74 -16 -80 -21 -5
-4 -17 -8 -27 -8 -10 0 -18 -4 -18 -8 0 -5 -32 -16 -71 -27 -39 -10 -73 -24
-76 -31 -3 -8 -10 -14 -17 -14 -14 0 -36 -47 -36 -77 0 -13 5 -23 10 -23 17 0
11 -38 -7 -45 -17 -6 -17 -7 0 -16 9 -6 17 -16 17 -23 0 -28 33 -76 56 -82 13
-3 24 -9 24 -14 0 -4 18 -12 40 -19 21 -6 46 -18 54 -27 13 -12 19 -12 36 -2
11 7 20 16 20 20 0 5 5 8 11 8 5 0 8 -4 5 -9 -9 -13 19 -32 38 -25 10 4 19 -2
27 -20 13 -28 20 -31 35 -16 6 6 26 11 46 12 22 1 39 8 47 20 7 11 7 18 1 18
-5 0 -10 -4 -10 -10 0 -18 -22 -10 -27 10 -4 14 -19 24 -49 31 -30 8 -41 15
-37 25 3 8 0 14 -6 14 -15 0 -81 68 -81 84 0 24 120 90 184 102 20 3 23 1 19
-20 -8 -38 35 -121 88 -171 43 -40 53 -45 96 -45 75 0 117 16 157 60 42 47 66
100 66 146 0 18 4 35 9 38 12 8 119 -59 158 -99 18 -19 33 -41 33 -51 0 -13 6
-15 34 -10 26 5 35 3 40 -10 4 -9 5 -18 4 -20 -2 -1 -32 -8 -68 -14 -105 -20
-115 -30 -30 -29 41 0 93 -3 116 -6 39 -6 65 6 61 29 -2 10 54 29 62 21 2 -3
-5 -15 -17 -28 -12 -13 -22 -29 -22 -35 0 -16 27 -15 33 1 4 10 6 10 6 0 1
-19 21 -16 21 2 0 24 47 42 70 27 24 -15 35 0 20 27 -5 11 -10 27 -10 35 0 23
31 20 37 -4 12 -45 43 -11 43 48 0 13 6 22 15 22 10 0 15 10 16 28 4 145 6
173 14 181 21 20 172 46 258 45 89 -1 113 -8 87 -24 -11 -7 -8 -10 13 -10 16
0 26 4 23 9 -3 5 6 13 22 18 39 13 125 10 130 -5 2 -7 10 -12 17 -12 27 0 30
-85 4 -116 -6 -7 -11 -33 -9 -56 1 -24 2 -70 2 -103 0 -55 19 -152 33 -175 4
-6 10 -8 15 -5 16 10 41 -41 34 -68 -6 -27 -1 -28 79 -18 5 1 6 10 2 20 -5 17
1 20 50 26 59 8 73 18 56 39 -9 11 -4 18 23 34 19 11 43 28 53 36 63 55 95 77
140 95 l51 20 -5 -53 c-8 -74 17 -143 69 -195 29 -28 51 -41 69 -41 15 0 31
-5 34 -11 9 -14 82 -2 115 19 74 46 112 114 111 203 0 50 2 57 17 52 41 -16
108 -72 140 -118 18 -28 40 -51 47 -53 24 -6 1 -55 -36 -75 -19 -11 -36 -22
-39 -26 -14 -20 -126 -36 -237 -35 -45 1 -50 -1 -35 -12 10 -7 40 -12 66 -12
34 0 51 -5 61 -19 21 -26 18 -39 -3 -20 -21 19 -42 22 -42 7 0 -5 7 -10 15
-10 20 0 19 -10 -2 -26 -18 -14 -18 -14 42 -14 3 0 14 -9 24 -19 16 -16 29
-19 68 -15 26 3 52 10 57 15 6 5 21 9 34 9 13 0 30 7 38 15 10 9 25 12 44 8
19 -3 39 0 55 11 13 9 29 16 36 16 6 0 44 15 84 34 79 37 100 60 83 89 -13 24
-2 67 17 67 22 0 19 7 -15 40 -17 17 -28 35 -25 40 7 11 -3 24 -57 83 -21 21
-38 45 -38 52 0 7 -8 15 -17 19 -10 3 -31 15 -48 25 -35 23 -114 61 -126 61
-5 0 -17 4 -27 9 -9 5 -54 21 -100 36 -46 14 -101 37 -123 50 -21 14 -45 25
-54 25 -8 0 -15 4 -15 9 0 11 -56 41 -77 41 -7 0 -13 5 -13 10 0 6 5 10 11 10
5 0 7 5 4 10 -10 17 5 33 19 21 9 -8 18 -6 30 8 19 21 61 31 154 37 63 4 82
-8 40 -26 -28 -11 -20 -12 55 -10 35 1 57 -3 57 -9 0 -6 15 -11 34 -11 21 0
36 -6 40 -15 3 -9 18 -15 35 -15 17 0 57 -12 88 -26 85 -39 88 -41 86 -53 -2
-6 -4 -17 -5 -23 -2 -8 10 -14 27 -16 17 -2 35 -9 41 -17 6 -8 34 -17 62 -21
l53 -7 -5 37 c-3 21 -10 44 -16 51 -7 8 -9 18 -6 24 3 5 -10 18 -29 30 -33 19
-46 41 -25 41 6 0 10 -5 10 -11 0 -5 5 -7 10 -4 14 9 12 41 -3 57 -8 7 -16 18
-18 24 -9 25 -106 127 -134 141 -16 9 -57 36 -90 61 -123 91 -212 111 -482
108 -144 -3 -154 -4 -191 -28 -21 -14 -57 -55 -81 -91 -23 -36 -49 -68 -58
-71 -19 -8 -35 2 -27 16 5 7 -2 9 -20 4 -25 -6 -26 -5 -26 34 0 44 -14 53 -26
18 -10 -35 -44 -52 -44 -23 0 19 -9 19 -31 -1 -16 -14 -18 -14 -29 6 -10 19
-13 20 -28 7 -13 -12 -35 -14 -95 -11 -81 5 -113 -5 -103 -33 3 -7 0 -13 -6
-13 -6 0 -20 -8 -30 -17 -13 -11 -34 -16 -71 -15 -30 1 -75 -7 -108 -19 -30
-11 -59 -19 -65 -18 -5 1 -21 1 -36 0 -21 -1 -28 -7 -33 -32 l-7 -31 -16 24
c-9 13 -16 26 -15 29 1 3 -12 3 -29 1 -27 -4 -30 -2 -26 16 5 19 3 20 -20 11
-18 -7 -28 -7 -30 0 -2 6 -15 8 -30 5 -23 -4 -24 -3 -9 6 23 15 22 30 -3 30
-12 0 -20 7 -20 16 0 11 -5 14 -17 9 -10 -4 -30 -8 -45 -9 -27 -2 -28 0 -29
43 -1 42 -2 43 -9 17 -5 -15 -15 -36 -23 -45 -8 -9 -17 -25 -19 -36 -5 -30
-23 -24 -26 10 -2 16 -10 37 -17 47 -12 18 -13 18 -18 -3 -3 -11 -1 -32 4 -46
5 -13 5 -31 1 -39 -6 -12 -13 -5 -25 26 -9 23 -24 44 -35 47 -20 5 -72 101
-72 134 0 17 -5 20 -29 17 -19 -2 -41 6 -60 20 -17 12 -63 29 -103 37 -92 19
-184 40 -223 53 -21 6 -45 5 -80 -4 -28 -7 -70 -13 -95 -13 -41 0 -43 1 -26
14 17 13 18 15 2 21 -9 3 -30 4 -47 2 -20 -3 -33 0 -36 9 -6 14 -16 17 -26 7z
m683 -174 c0 -5 -7 -10 -15 -10 -8 0 -15 5 -15 10 0 6 7 10 15 10 8 0 15 -4
15 -10z m-820 -20 c0 -5 -4 -10 -10 -10 -5 0 -10 5 -10 10 0 6 5 10 10 10 6 0
10 -4 10 -10z m2320 -10 c0 -5 -5 -10 -11 -10 -5 0 -7 5 -4 10 3 6 8 10 11 10
2 0 4 -4 4 -10z m-2402 -42 c-3 -7 -13 -15 -24 -17 -16 -3 -17 -1 -5 13 16 19
34 21 29 4z m1859 -80 c-3 -8 -6 -5 -6 6 -1 11 2 17 5 13 3 -3 4 -12 1 -19z
m-827 -19 c0 -5 -4 -9 -10 -9 -5 0 -10 7 -10 16 0 8 5 12 10 9 6 -3 10 -10 10
-16z m-955 1 c-3 -5 -13 -10 -21 -10 -8 0 -12 5 -9 10 3 6 13 10 21 10 8 0 12
-4 9 -10z m2145 -9 c0 -5 -7 -14 -15 -21 -16 -14 -18 -10 -9 14 6 17 24 22 24
7z m37 -23 c-3 -8 -6 -5 -6 6 -1 11 2 17 5 13 3 -3 4 -12 1 -19z m-1251 -15
c-7 -7 -26 7 -26 19 0 6 6 6 15 -2 9 -7 13 -15 11 -17z m108 -10 c-13 -14 -17
-14 -25 -2 -6 10 -3 16 9 20 26 10 34 0 16 -18z m-44 -21 c0 -13 -3 -12 -15 4
-19 25 -19 40 0 24 8 -7 15 -20 15 -28z m556 13 c-8 -8 -19 -15 -24 -15 -5 0
-23 -7 -38 -15 -37 -19 -64 -19 -64 0 0 9 9 15 23 15 13 0 27 4 33 9 10 10 38
18 67 20 16 1 17 -1 3 -14z m-485 -32 c-10 -17 -10 -16 -11 3 0 23 13 41 18
25 2 -6 -1 -18 -7 -28z m463 -17 c-3 -8 -22 -17 -42 -21 -20 -4 -43 -12 -50
-17 -15 -13 -27 -4 -17 11 3 6 18 11 33 11 15 0 38 7 52 14 14 8 26 14 27 15
1 1 0 -5 -3 -13z m-1062 -72 c48 -6 77 -24 39 -24 -12 0 -21 -5 -21 -10 0 -6
-17 -11 -37 -10 -21 0 -54 -2 -73 -5 -19 -2 -84 -9 -145 -15 -60 -6 -120 -13
-132 -16 -18 -5 -23 -2 -23 14 0 11 -8 23 -17 26 -10 3 10 4 45 2 49 -2 62 1
58 11 -7 17 3 21 89 31 70 9 128 8 217 -4z m-414 -92 c6 -18 -15 -14 -22 4 -4
10 -1 14 6 12 6 -2 14 -10 16 -16z m3202 -12 c13 -8 13 -10 -2 -10 -9 0 -20 5
-23 10 -8 13 5 13 25 0z m-3299 -10 c28 -16 23 -30 -11 -30 -28 0 -40 17 -23
33 8 9 11 9 34 -3z m59 6 c0 -3 -4 -8 -10 -11 -5 -3 -10 -1 -10 4 0 6 5 11 10
11 6 0 10 -2 10 -4z m-120 -20 c0 -2 3 -11 6 -20 4 -11 1 -16 -10 -16 -9 0
-16 4 -16 9 0 5 -9 7 -20 4 -11 -3 -20 -1 -20 5 0 6 8 13 18 15 24 7 42 8 42
3z m2614 -11 c48 -9 114 -27 146 -40 33 -14 68 -25 78 -25 10 0 22 -12 29 -29
9 -25 8 -30 -7 -34 -9 -2 -26 0 -36 6 -27 15 -170 40 -234 41 -30 1 -102 -3
-159 -7 -122 -10 -130 2 -32 43 35 15 66 32 70 37 16 25 38 26 145 8z m-1767
-37 c-3 -8 -6 -5 -6 6 -1 11 2 17 5 13 3 -3 4 -12 1 -19z m-379 -6 c3 -9 -3
-13 -19 -10 -12 1 -24 9 -27 16 -3 9 3 13 19 10 12 -1 24 -9 27 -16z m520 -34
c31 -36 52 -81 52 -110 0 -14 -6 -19 -22 -16 -30 4 -103 126 -86 145 16 20 27
16 56 -19z m1982 -77 c0 -3 -15 -6 -33 -5 -59 2 -63 4 -37 17 24 13 70 4 70
-12z m-795 -2 c5 -16 -2 -31 -31 -61 -22 -22 -51 -47 -66 -56 -16 -9 -28 -22
-28 -29 0 -15 -17 -26 -30 -18 -13 8 52 131 81 153 23 18 45 29 61 31 4 1 10
-8 13 -20z m410 -59 c0 -19 -41 -25 -60 -10 -22 18 -8 32 28 28 20 -2 32 -8
32 -18z m265 -295 c0 -8 -2 -15 -4 -15 -2 0 -6 7 -10 15 -3 8 -1 15 4 15 6 0
10 -7 10 -15z"/>
<path d="M6358 8593 c7 -3 16 -2 19 1 4 3 -2 6 -13 5 -11 0 -14 -3 -6 -6z"/>
<path d="M3359 9024 c-26 -18 -59 -34 -75 -36 -15 -2 -29 -9 -32 -16 -3 -11 0
-12 15 -4 11 6 43 14 71 18 29 3 52 10 52 15 0 5 16 9 35 9 42 0 44 10 7 31
-26 15 -29 14 -73 -17z"/>
<path d="M3385 8963 c-76 -4 -105 -11 -105 -24 0 -6 4 -8 9 -5 5 3 40 9 77 12
38 3 73 10 79 15 5 5 7 8 5 7 -3 -1 -32 -3 -65 -5z"/>
<path d="M3825 8360 c-3 -5 -1 -10 4 -10 6 0 11 5 11 10 0 6 -2 10 -4 10 -3 0
-8 -4 -11 -10z"/>
<path d="M5790 8281 c0 -10 50 -25 57 -18 2 3 -10 9 -26 15 -17 6 -31 7 -31 3z"/>
<path d="M4064 8261 c-5 -5 -18 -11 -29 -14 -15 -4 -14 -5 7 -6 15 0 30 4 33
10 9 14 1 21 -11 10z"/>
<path d="M5485 8230 c3 -5 8 -10 11 -10 2 0 4 5 4 10 0 6 -5 10 -11 10 -5 0
-7 -4 -4 -10z"/>
<path d="M5520 8229 c0 -5 5 -7 10 -4 6 3 10 8 10 11 0 2 -4 4 -10 4 -5 0 -10
-5 -10 -11z"/>
<path d="M5594 8166 c-19 -21 16 -71 43 -62 6 3 14 -2 17 -10 8 -20 26 -18 26
4 0 20 -53 47 -71 36 -9 -5 -10 1 -5 20 7 29 6 31 -10 12z"/>
<path d="M4610 7424 c-14 -3 -41 -18 -60 -33 -44 -35 -88 -44 -123 -26 -31 16
-31 15 -15 -20 14 -31 75 -65 115 -65 16 0 44 -5 63 -10 45 -13 91 -4 88 18
-3 14 9 17 77 19 93 3 161 -14 225 -57 44 -29 48 -30 170 -30 84 1 133 5 149
14 20 11 31 11 73 -3 43 -14 48 -19 43 -39 -4 -16 -2 -21 5 -17 6 4 16 3 23
-2 19 -15 91 -33 129 -33 77 0 148 46 148 98 0 22 -10 28 -24 15 -4 -5 -11 -8
-14 -9 -20 -2 -42 -18 -42 -29 0 -15 -28 -29 -52 -26 -10 1 -18 -3 -18 -8 0
-16 -28 -13 -61 6 -34 20 -37 33 -9 40 11 3 20 12 20 20 0 9 6 13 15 9 45 -17
61 37 21 66 -69 50 -224 39 -316 -22 -33 -22 -96 -46 -142 -54 -45 -8 -102 18
-158 72 -80 79 -131 103 -229 107 -42 2 -87 1 -101 -1z"/>
<path d="M4754 7184 c-26 -25 -26 -26 -8 -46 14 -15 16 -22 6 -25 -21 -8 -44
-64 -38 -94 3 -16 0 -32 -8 -38 -19 -16 -25 -4 -19 35 3 20 1 40 -6 48 -10 12
-8 17 11 27 l23 13 -30 6 c-21 4 -31 12 -33 28 -4 27 -28 29 -44 3 -11 -18
-13 -18 -25 -3 -12 16 -15 15 -33 -7 -21 -24 -27 -51 -11 -51 6 0 12 4 15 9 7
11 36 8 39 -3 1 -5 -8 -15 -20 -23 -15 -10 -23 -11 -23 -4 0 6 -4 11 -10 11
-17 0 -11 -28 8 -33 9 -3 2 -5 -15 -6 -21 -1 -33 -6 -33 -15 0 -8 -6 -17 -12
-19 -10 -4 -10 -8 1 -15 11 -8 10 -15 -8 -40 -12 -17 -28 -47 -36 -66 -17 -40
-30 -46 -38 -16 -3 11 -1 20 4 20 12 0 59 76 59 97 0 33 -91 -117 -104 -172
l-8 -30 28 25 c24 22 26 23 22 5 -3 -11 -9 -28 -13 -37 -12 -31 9 -19 29 15
12 20 20 27 24 19 4 -14 -3 -35 -38 -102 -11 -23 -16 -47 -12 -70 5 -35 5 -35
-16 -16 -17 15 -19 22 -11 38 6 11 9 31 6 44 -2 13 0 24 4 24 5 0 9 4 9 8 0 5
-7 9 -15 9 -8 0 -15 -6 -15 -13 0 -7 -9 -16 -20 -19 -16 -5 -20 -16 -21 -48
-1 -23 -3 -34 -6 -24 -2 9 -10 17 -16 17 -25 0 -40 17 -29 31 6 8 24 30 40 49
19 23 33 57 42 100 7 36 19 72 26 81 16 18 18 49 4 49 -5 0 -10 -7 -10 -15 0
-9 -7 -18 -15 -21 -8 -4 -15 -12 -15 -19 0 -8 -5 -17 -11 -20 -7 -5 -8 5 -3
32 6 35 6 37 -9 24 -10 -7 -17 -19 -17 -27 0 -15 -100 -124 -113 -124 -15 0
-3 18 52 75 50 52 59 71 17 40 -11 -8 -28 -15 -39 -15 -15 0 -18 5 -13 25 5
21 3 25 -15 25 -12 0 -32 -11 -45 -25 -12 -14 -29 -22 -37 -19 -8 3 -17 -2
-20 -10 -7 -17 -37 -22 -37 -6 0 5 -16 2 -35 -8 -19 -9 -33 -22 -31 -28 5 -12
-29 -45 -49 -48 -22 -3 -156 -116 -150 -127 7 -10 47 2 64 18 14 15 33 14 32
-2 0 -6 -8 -12 -18 -14 -10 -2 -22 -9 -26 -17 -4 -8 -24 -14 -42 -14 -29 0
-35 -4 -35 -20 0 -18 3 -19 21 -9 12 6 32 9 44 6 17 -3 25 1 28 15 9 32 29 20
26 -16 -2 -19 2 -41 9 -49 8 -9 10 -26 7 -40 -4 -14 -2 -28 4 -31 6 -4 11 -19
11 -34 l0 -27 19 24 c14 18 23 22 37 16 11 -5 23 -7 28 -6 6 1 28 3 50 3 23 0
49 4 58 9 16 9 63 14 150 18 20 1 29 7 34 24 5 24 6 24 205 30 194 7 259 16
211 31 -13 4 -19 13 -15 22 4 10 -2 14 -21 14 -14 0 -26 -4 -26 -10 0 -19 -28
-10 -33 10 -5 20 -27 29 -27 11 0 -20 -32 -41 -55 -35 -12 3 -26 1 -29 -5 -4
-6 -12 -11 -18 -11 -6 0 1 12 16 26 26 27 33 44 17 44 -10 0 -21 36 -13 44 3
3 10 2 16 -3 6 -5 25 -11 41 -13 l30 -3 3 65 c2 52 0 67 -14 77 -24 17 -25 62
-2 96 23 33 48 35 48 5 0 -46 11 -65 36 -65 20 0 29 10 50 53 14 30 29 56 35
59 15 10 10 52 -7 59 -9 4 -14 9 -11 13 4 3 13 0 22 -7 19 -16 39 -1 66 52 19
37 39 50 39 26 0 -31 -25 -78 -42 -78 -12 0 -30 -25 -58 -81 -37 -75 -38 -80
-17 -73 12 4 27 14 33 22 6 8 22 17 35 19 28 4 69 43 44 43 -13 0 -13 3 -3 20
7 11 18 20 25 20 7 0 13 9 13 20 0 11 5 20 11 20 7 0 9 -10 4 -27 -4 -16 -7
-42 -7 -59 0 -26 -3 -31 -17 -27 -11 3 -21 -2 -24 -11 -4 -9 -14 -16 -24 -16
-10 0 -30 -10 -45 -23 -14 -12 -36 -30 -47 -39 -25 -21 -27 -38 -6 -38 8 0 15
4 15 9 0 13 30 22 43 14 18 -12 60 -11 75 1 22 16 61 106 55 123 -5 13 -1 15
23 9 21 -5 25 -4 14 4 -11 7 -12 10 -2 10 9 0 13 12 11 38 -1 20 1 44 4 52 18
50 16 67 -12 99 -21 23 -39 33 -64 34 -19 1 -33 5 -30 10 2 4 -14 7 -37 7 -31
0 -47 -6 -66 -26z m96 -14 c0 -5 -5 -10 -11 -10 -5 0 -7 5 -4 10 3 6 8 10 11
10 2 0 4 -4 4 -10z m42 -59 c1 -36 -4 -57 -15 -68 -24 -25 -34 -7 -14 26 20
34 22 68 5 73 -7 3 -9 12 -4 23 12 31 27 2 28 -54z m-242 -136 c0 -8 -4 -15
-10 -15 -5 0 -7 7 -4 15 4 8 8 15 10 15 2 0 4 -7 4 -15z m190 -125 c0 -5 -5
-10 -11 -10 -5 0 -7 5 -4 10 3 6 8 10 11 10 2 0 4 -4 4 -10z m-320 -29 c0 -6
-4 -13 -10 -16 -5 -3 -10 1 -10 9 0 9 5 16 10 16 6 0 10 -4 10 -9z m-380 -105
c0 -30 -7 -51 -20 -67 -14 -16 -20 -19 -19 -9 3 34 -2 50 -16 50 -8 0 -15 2
-15 4 0 8 55 66 62 66 5 0 8 -20 8 -44z m150 35 c0 -5 -7 -12 -15 -15 -9 -3
-22 -21 -30 -40 -16 -38 -35 -56 -35 -32 0 8 3 16 8 18 4 2 16 20 26 41 17 33
46 51 46 28z m-395 -21 c3 -5 -3 -10 -15 -10 -12 0 -18 5 -15 10 3 6 10 10 15
10 5 0 12 -4 15 -10z m553 -141 c-2 -6 -7 -10 -11 -10 -4 1 -15 1 -24 1 -15 0
-16 2 -3 10 20 13 43 13 38 -1z"/>
<path d="M5358 7148 c-2 -6 -23 -12 -47 -14 -51 -2 -56 -6 -40 -33 7 -11 10
-23 7 -27 -11 -10 -28 6 -28 27 0 10 -5 19 -11 19 -10 0 -7 -31 8 -83 4 -15 1
-18 -16 -13 -12 3 -30 9 -41 12 -36 10 -23 -31 24 -72 43 -38 76 -94 56 -94
-5 0 -8 -25 -6 -56 2 -43 0 -54 -10 -50 -20 8 -17 -11 6 -34 11 -11 26 -17 34
-14 8 3 24 -8 39 -28 26 -35 46 -95 27 -83 -17 11 -11 -11 8 -28 13 -12 21
-14 29 -6 8 8 13 8 18 0 3 -6 -2 -14 -12 -17 -10 -3 -33 -13 -51 -22 -24 -11
-38 -13 -50 -6 -15 10 -37 10 -127 0 -16 -1 -68 -4 -115 -5 l-85 -3 40 -13
c25 -9 94 -14 187 -14 100 -1 161 -6 190 -15 24 -8 74 -22 113 -31 38 -9 80
-22 92 -30 12 -8 27 -15 33 -15 5 0 19 -8 30 -17 14 -13 17 -20 8 -30 -15 -19
6 -40 53 -55 27 -7 45 -22 59 -45 12 -20 27 -33 40 -33 11 0 20 -6 20 -13 0
-29 70 -63 83 -39 2 4 3 2 1 -3 -4 -21 21 -41 50 -41 16 1 31 -5 33 -12 3 -7
1 -11 -4 -10 -9 3 -13 -5 -13 -27 0 -12 4 -13 25 -3 21 9 25 18 25 53 0 22 -5
46 -12 53 -9 9 -7 13 8 18 22 9 34 23 34 43 0 11 -3 11 -15 1 -13 -11 -15 -8
-15 15 0 15 -8 34 -17 41 -10 7 -14 16 -9 21 5 4 11 2 13 -5 3 -7 20 -19 39
-27 26 -11 34 -20 34 -39 0 -15 8 -30 19 -36 29 -15 32 -13 21 15 -8 21 -7 25
10 25 24 0 25 9 5 46 -19 37 -18 134 2 134 10 0 12 8 7 28 -11 46 -78 162 -94
162 -8 0 -34 9 -58 20 l-44 20 7 -30 c8 -34 -13 -43 -22 -10 -3 13 -12 20 -22
18 -9 -2 -21 6 -26 17 -6 11 -20 21 -33 23 -12 2 -30 14 -41 28 -21 27 -44 33
-35 9 7 -17 1 -19 -24 -6 -9 5 -24 12 -32 14 -9 3 -26 26 -39 51 -22 42 -26
45 -41 31 -23 -21 -26 -20 -61 18 -44 46 -74 114 -59 133 10 11 9 19 -4 39
-18 27 -77 68 -85 59 -3 -3 1 -9 8 -13 13 -9 7 -31 -8 -31 -4 0 -18 14 -30 31
-17 22 -20 33 -12 39 9 5 9 13 1 31 -14 31 -47 54 -52 37z m307 -378 c3 -5 -1
-10 -9 -10 -9 0 -16 5 -16 10 0 6 4 10 9 10 6 0 13 -4 16 -10z m45 -78 c0 -8
-6 -12 -12 -9 -7 2 -12 12 -12 21 1 9 -2 16 -7 16 -5 0 -9 8 -9 18 0 14 4 12
20 -8 11 -14 20 -31 20 -38z m-79 -31 c1 -29 -3 -57 -10 -64 -6 -6 -11 -9 -12
-6 0 2 -3 38 -6 79 -4 68 -3 74 11 60 11 -10 17 -35 17 -69z m-126 -10 c-6
-20 -25 -30 -25 -13 1 26 14 52 22 44 6 -6 7 -19 3 -31z m42 -16 c-1 -36 -11
-46 -20 -21 -7 17 2 56 13 56 4 0 8 -16 7 -35z m303 15 c6 -11 9 -20 7 -20 -2
0 -12 9 -22 20 -10 11 -13 20 -7 20 6 0 16 -9 22 -20z m-187 -30 c-3 -11 -9
-23 -14 -26 -10 -6 -12 39 -3 49 12 12 22 -3 17 -23z m-183 -10 c0 -5 -4 -10
-10 -10 -5 0 -10 5 -10 10 0 6 5 10 10 10 6 0 10 -4 10 -10z m40 -14 c0 -2 -7
-7 -16 -10 -8 -3 -12 -2 -9 4 6 10 25 14 25 6z m460 -56 c0 -5 -5 -10 -11 -10
-5 0 -7 5 -4 10 3 6 8 10 11 10 2 0 4 -4 4 -10z m15 -60 c9 -28 15 -100 9
-100 -3 0 -12 7 -20 15 -10 10 -11 15 -4 15 12 0 11 5 -6 68 -8 28 12 30 21 2z
m-18 -122 c-3 -8 -6 -5 -6 6 -1 11 2 17 5 13 3 -3 4 -12 1 -19z m148 -57 c-3
-12 -11 -21 -17 -21 -5 0 -7 7 -4 16 3 9 6 23 6 32 0 12 3 13 11 5 6 -6 8 -20
4 -32z m-45 3 c0 -8 -4 -12 -10 -9 -5 3 -10 13 -10 21 0 8 5 12 10 9 6 -3 10
-13 10 -21z m-97 -17 c3 -8 2 -19 -2 -25 -10 -16 -35 3 -28 22 8 19 23 21 30
3z"/>
<path d="M4195 6980 c-3 -6 1 -7 9 -4 18 7 21 14 7 14 -6 0 -13 -4 -16 -10z"/>
<path d="M4240 6945 c-20 -24 -6 -28 15 -5 10 11 13 20 8 20 -6 0 -16 -7 -23
-15z"/>
<path d="M4580 6895 c0 -8 5 -15 10 -15 6 0 10 7 10 15 0 8 -4 15 -10 15 -5 0
-10 -7 -10 -15z"/>
<path d="M5587 6875 c-4 -8 -2 -17 3 -20 6 -4 10 3 10 14 0 25 -6 27 -13 6z"/>
<path d="M5842 6728 c2 -6 10 -14 16 -16 7 -2 10 2 6 12 -7 18 -28 22 -22 4z"/>
<path d="M2976 6673 c-11 -11 -6 -23 9 -23 8 0 15 4 15 9 0 13 -16 22 -24 14z"/>
<path d="M5916 6666 c7 -19 38 -22 32 -3 -3 6 -12 13 -21 15 -12 2 -15 -1 -11
-12z"/>
<path d="M3740 6660 c0 -5 4 -10 9 -10 6 0 13 5 16 10 3 6 -1 10 -9 10 -9 0
-16 -4 -16 -10z"/>
<path d="M4734 6562 c6 -5 220 -41 224 -37 8 7 -109 34 -165 38 -35 2 -61 1
-59 -1z"/>
<path d="M6782 6480 c0 -19 2 -27 5 -17 2 9 2 25 0 35 -3 9 -5 1 -5 -18z"/>
<path d="M3873 6475 c-3 -9 -3 -18 -1 -21 3 -3 8 4 11 16 6 23 -1 27 -10 5z"/>
<path d="M3166 6394 c-9 -23 -7 -36 3 -30 12 8 21 46 11 46 -4 0 -11 -7 -14
-16z"/>
<path d="M4491 6197 c-10 -13 -9 -17 6 -25 10 -5 24 -7 31 -4 11 3 12 0 2 -18
-7 -13 -8 -26 -3 -31 10 -10 135 -43 202 -53 24 -4 49 -10 55 -14 25 -16 84
-32 121 -32 22 -1 60 -5 85 -11 25 -5 84 -14 132 -20 48 -5 105 -16 127 -24
23 -8 41 -10 41 -5 0 16 27 11 34 -6 9 -23 67 -14 89 14 10 12 23 20 27 17 9
-6 50 13 61 28 4 5 17 14 29 20 13 7 27 22 31 34 7 19 3 23 -29 34 -20 6 -46
20 -57 30 -17 15 -27 17 -57 9 -20 -6 -41 -17 -48 -25 -7 -8 -27 -15 -45 -15
-17 0 -47 -7 -64 -16 -46 -23 -141 -29 -255 -15 -107 12 -187 38 -346 109 -70
32 -151 40 -169 19z"/>
<path d="M3274 6100 c3 -14 6 -34 6 -45 1 -18 2 -18 10 -4 7 12 5 26 -6 45
-15 27 -16 28 -10 4z"/>
<path d="M6032 6058 c6 -18 28 -21 28 -4 0 9 -7 16 -16 16 -9 0 -14 -5 -12
-12z"/>
<path d="M5987 6044 c-3 -3 -3 -12 0 -20 6 -16 43 -19 43 -4 0 12 -35 31 -43
24z"/>
<path d="M6036 6004 c-4 -10 -1 -14 6 -12 15 5 23 28 10 28 -5 0 -13 -7 -16
-16z"/>
<path d="M5960 5955 c0 -2 9 -9 20 -15 16 -9 20 -8 20 5 0 8 -9 15 -20 15 -11
0 -20 -2 -20 -5z"/>
<path d="M3508 5923 c-9 -2 -19 -11 -22 -20 -13 -34 16 -27 34 8 6 10 9 18 8
18 -2 -1 -10 -3 -20 -6z"/>
<path d="M3440 5906 c0 -9 5 -16 10 -16 6 0 10 4 10 9 0 6 -4 13 -10 16 -5 3
-10 -1 -10 -9z"/>
<path d="M6000 5896 c0 -9 5 -16 10 -16 6 0 10 4 10 9 0 6 -4 13 -10 16 -5 3
-10 -1 -10 -9z"/>
<path d="M6210 5875 c0 -8 7 -15 15 -15 8 0 15 7 15 15 0 8 -7 15 -15 15 -8 0
-15 -7 -15 -15z"/>
<path d="M6050 5860 c0 -5 7 -10 15 -10 8 0 15 5 15 10 0 6 -7 10 -15 10 -8 0
-15 -4 -15 -10z"/>
<path d="M6042 5828 c7 -19 38 -22 38 -4 0 10 -9 16 -21 16 -12 0 -19 -5 -17
-12z"/>
<path d="M5995 5820 c-11 -19 5 -80 20 -80 8 0 15 7 15 15 0 8 -7 15 -15 15
-18 0 -20 37 -3 42 9 3 9 6 1 11 -7 4 -15 2 -18 -3z"/>
<path d="M3645 5800 c-3 -5 1 -10 9 -10 8 0 18 5 21 10 3 6 -1 10 -9 10 -8 0
-18 -4 -21 -10z"/>
<path d="M3965 5750 c3 -5 13 -10 21 -10 8 0 14 5 14 10 0 6 -9 10 -21 10 -11
0 -17 -4 -14 -10z"/>
<path d="M4265 5656 c-13 -19 -13 -29 -4 -52 l12 -29 7 35 c4 19 11 43 15 53
11 26 -12 21 -30 -7z"/>
<path d="M4985 5599 c-15 -24 19 -87 48 -89 14 0 6 56 -12 78 -22 25 -27 27
-36 11z"/>
<path d="M5050 5456 c0 -9 5 -16 10 -16 6 0 10 4 10 9 0 6 -4 13 -10 16 -5 3
-10 -1 -10 -9z"/>
<path d="M4956 5405 c-9 -26 -7 -32 5 -12 6 10 9 21 6 23 -2 3 -7 -2 -11 -11z"/>
<path d="M1395 4140 c-3 -5 -1 -10 4 -10 6 0 11 5 11 10 0 6 -2 10 -4 10 -3 0
-8 -4 -11 -10z"/>
<path d="M2217 3752 c-19 -20 -22 -42 -8 -42 5 0 11 6 14 13 3 9 9 7 23 -5 13
-13 15 -21 7 -29 -12 -12 -6 -49 8 -49 5 0 9 7 9 15 0 8 -5 15 -12 15 -8 0 -6
5 3 13 37 31 43 46 24 67 -23 25 -47 25 -68 2z"/>
<path d="M2266 3619 c-20 -20 -25 -29 -14 -29 18 0 51 35 47 49 -2 5 -17 -4
-33 -20z"/>
<path d="M7055 3750 c-11 -17 5 -32 20 -20 9 8 15 8 20 0 3 -5 1 -10 -4 -10
-17 0 -13 -25 7 -43 21 -19 32 -13 32 18 0 33 -61 77 -75 55z"/>
<path d="M7220 3524 c0 -8 9 -14 20 -14 11 0 20 4 20 9 0 5 -9 11 -20 14 -13
3 -20 0 -20 -9z"/>
<path d="M7365 3500 c-3 -5 -1 -10 4 -10 6 0 11 5 11 10 0 6 -2 10 -4 10 -3 0
-8 -4 -11 -10z"/>
<path d="M8005 2508 c-6 -16 -9 -47 -7 -71 2 -15 9 -18 45 -15 37 3 42 6 45
29 3 22 -4 30 -38 48 -30 15 -42 18 -45 9z"/>
<path d="M7957 2453 c-4 -3 -7 -13 -7 -22 1 -13 3 -13 11 2 11 19 8 33 -4 20z"/>
<path d="M7994 2385 c-8 -19 3 -35 25 -35 23 0 41 19 34 36 -7 18 -52 18 -59
-1z"/>
<path d="M5075 1890 c-3 -5 -2 -10 4 -10 5 0 13 5 16 10 3 6 2 10 -4 10 -5 0
-13 -4 -16 -10z"/>
<path d="M6957 1243 c-12 -12 -7 -22 8 -17 8 4 15 10 15 15 0 11 -14 12 -23 2z"/>
<path d="M6990 1183 c0 -12 -3 -30 -6 -40 -5 -17 -5 -17 6 0 6 9 16 15 21 11
6 -3 5 -12 -3 -22 -11 -13 -11 -14 2 -10 22 7 22 30 0 58 -19 24 -20 24 -20 3z"/>
<path d="M6780 1094 c0 -3 7 -12 15 -20 16 -17 18 -14 9 10 -6 15 -24 23 -24
10z"/>
<path d="M6940 1046 c0 -2 6 -9 14 -15 10 -9 15 -8 19 2 3 8 -3 13 -14 14 -10
1 -19 0 -19 -1z"/>
<path d="M7106 1031 c-3 -5 -14 -7 -24 -4 -10 2 -27 -6 -41 -21 -17 -18 -36
-26 -60 -27 -21 -1 -28 -3 -16 -6 11 -3 24 -9 30 -14 13 -13 25 -11 25 4 0 7
14 21 30 30 17 10 30 14 30 8 0 -5 14 -3 30 6 17 8 28 19 25 24 -8 12 -22 12
-29 0z"/>
<path d="M6900 969 c0 -5 5 -7 10 -4 6 3 10 8 10 11 0 2 -4 4 -10 4 -5 0 -10
-5 -10 -11z"/>
<path d="M6830 251 c0 -5 7 -12 16 -15 8 -3 24 -25 34 -49 l20 -44 55 -1 c30
0 55 3 55 7 -1 9 -21 32 -48 56 -19 15 -25 17 -32 6 -6 -11 -13 -10 -34 5 -14
11 -26 25 -26 32 0 14 -40 17 -40 3z"/>
<path d="M4151 534 c0 -11 3 -14 6 -6 3 7 2 16 -1 19 -3 4 -6 -2 -5 -13z"/>
<path d="M8135 730 c-3 -5 -1 -10 4 -10 6 0 11 5 11 10 0 6 -2 10 -4 10 -3 0
-8 -4 -11 -10z"/>
<path d="M8135 400 c-3 -5 -1 -10 4 -10 6 0 11 5 11 10 0 6 -2 10 -4 10 -3 0
-8 -4 -11 -10z"/>
<path d="M8320 390 c0 -11 2 -20 4 -20 2 0 6 9 9 20 3 11 1 20 -4 20 -5 0 -9
-9 -9 -20z"/>
<path d="M7030 11000 c0 -11 21 -11 65 0 27 7 25 8 -17 9 -27 0 -48 -3 -48 -9z"/>
<path d="M7780 9819 c33 -26 104 -63 96 -50 -11 17 -93 71 -108 71 -7 0 -2 -9
12 -21z"/>
<path d="M2048 7145 c2 -14 8 -25 13 -25 10 0 11 12 3 34 -10 25 -22 19 -16
-9z"/>
<path d="M2112 7084 c1 -9 9 -19 16 -22 9 -3 13 2 10 14 -1 9 -9 19 -16 22 -9
3 -13 -2 -10 -14z"/>
<path d="M2072 7060 c0 -14 2 -19 5 -12 2 6 2 18 0 25 -3 6 -5 1 -5 -13z"/>
<path d="M7380 7020 c0 -11 2 -20 5 -20 2 0 9 9 15 20 9 16 8 20 -5 20 -8 0
-15 -9 -15 -20z"/>
<path d="M7338 6947 c-21 -24 -28 -27 -28 -14 0 9 5 17 10 17 6 0 10 5 10 11
0 22 -33 3 -50 -28 -9 -18 -21 -29 -25 -25 -4 4 -5 -16 -2 -45 3 -29 2 -55 -4
-58 -5 -4 -9 -14 -9 -22 0 -14 3 -13 20 4 37 40 125 195 108 192 -2 0 -15 -14
-30 -32z m-46 -78 c-6 -16 -11 -19 -17 -10 -4 8 -3 16 4 20 6 4 9 16 6 27 -6
17 -5 17 4 2 7 -10 8 -25 3 -39z"/>
<path d="M7212 6748 c-14 -14 -16 -28 -2 -28 5 0 14 9 20 20 12 22 1 27 -18 8z"/>
<path d="M2782 4660 c0 -14 2 -19 5 -12 2 6 2 18 0 25 -3 6 -5 1 -5 -13z"/>
<path d="M8155 3970 c3 -6 13 -10 22 -10 12 0 13 -3 4 -14 -16 -19 8 -37 45
-35 16 1 47 -5 69 -14 30 -13 35 -13 20 -2 -11 8 -29 23 -40 33 -26 25 -52 38
-93 45 -21 4 -31 3 -27 -3z"/>
<path d="M649 3625 c-18 -32 -25 -111 -9 -85 6 8 10 25 10 37 0 12 5 23 11 25
6 2 9 15 7 28 l-4 25 -15 -30z"/>
<path d="M6511 3544 c0 -11 3 -14 6 -6 3 7 2 16 -1 19 -3 4 -6 -2 -5 -13z"/>
<path d="M600 3524 c0 -8 5 -12 10 -9 6 3 10 10 10 16 0 5 -4 9 -10 9 -5 0
-10 -7 -10 -16z"/>
<path d="M8512 3500 c-14 -23 -73 -50 -108 -50 -13 0 -24 -4 -24 -9 0 -15 104
-11 134 4 15 8 32 13 36 10 14 -9 22 14 16 41 -8 29 -36 32 -54 4z"/>
<path d="M4846 3413 c-12 -12 -6 -33 9 -33 8 0 15 4 15 9 0 5 6 8 13 7 6 0 14
3 17 9 5 10 -44 18 -54 8z"/>
<path d="M4741 3268 c0 -7 4 -22 9 -33 7 -17 9 -15 9 13 1 17 -3 32 -9 32 -5
0 -10 -6 -9 -12z"/>
<path d="M4787 3226 c-4 -10 -5 -21 -2 -24 9 -9 17 6 13 25 -3 17 -4 17 -11
-1z"/>
<path d="M4880 3150 c0 -5 5 -10 11 -10 5 0 7 5 4 10 -3 6 -8 10 -11 10 -2 0
-4 -4 -4 -10z"/>
<path d="M688 1509 c-10 -5 -18 -18 -18 -29 0 -14 7 -18 35 -17 35 1 41 10 29
41 -7 18 -21 20 -46 5z"/>
<path d="M750 1229 c0 -6 -6 -9 -13 -6 -16 6 -44 -9 -35 -19 13 -12 93 -23
136 -17 45 6 58 23 17 23 -14 0 -42 7 -62 15 -42 18 -43 18 -43 4z"/>
<path d="M908 1203 c7 -3 16 -2 19 1 4 3 -2 6 -13 5 -11 0 -14 -3 -6 -6z"/>
<path d="M810 570 c-13 -8 -12 -10 3 -10 9 0 17 5 17 10 0 12 -1 12 -20 0z"/>
<path d="M2178 13 c12 -2 32 -2 45 0 12 2 2 4 -23 4 -25 0 -35 -2 -22 -4z"/>
</g>
</svg>
